<svg xmlns="http://www.w3.org/2000/svg" xmlns:xlink="http://www.w3.org/1999/xlink" width="1040" height="943" version="1.1">
<style type="text/css">
.l0{
  fill: #000000;
  stroke: #000000;
  stroke-linecap:round;
  stroke-linejoin:round;
  stroke-width: 0.480295;
  fill-opacity: 0;
  stroke-opacity: 0;
}
.l1{
  fill: #00ccee;
  stroke: #00ccee;
  stroke-linecap:round;
  stroke-linejoin:round;
  stroke-width: 0.480295;
}
.l2{
  fill: #4f4f4f; fill-opacity: 0.2;
  stroke: #4f4f4f;
  stroke-linecap:round;
  stroke-linejoin:round;
  stroke-width: 0.480295;
}
.l3{
  fill: #cccccc; fill-opacity: 0.5;
  stroke: #cccccc;
  stroke-linecap:round;
  stroke-linejoin:round;
  stroke-width: 0.480295;
}
.l4{
  fill: #88dd00;
  stroke: #88dd00;
  stroke-linecap:round;
  stroke-linejoin:round;
  stroke-width: 0.480295;
}
.l5{
  fill: #bb2200;
  stroke: #bb2200;
  stroke-linecap:round;
  stroke-linejoin:round;
  stroke-width: 0.480295;
}
.l6{
  fill: #00ccee; fill-opacity: 0.5;
  stroke: #00ccee;
  stroke-linecap:round;
  stroke-linejoin:round;
  stroke-width: 0.480295;
}
.l7{
  fill: #ff0000; fill-opacity: 0.5;
  stroke: #ff0000;
  stroke-linecap:round;
  stroke-linejoin:round;
  stroke-width: 0.480295;
}
.l8{
  fill: #ffff00; fill-opacity: 0.5;
  stroke: #ffff00;
  stroke-linecap:round;
  stroke-linejoin:round;
  stroke-width: 0.480295;
}
.l9{
  fill: #ffffff; fill-opacity: 0.5;
  stroke: #ffffff;
  stroke-linecap:round;
  stroke-linejoin:round;
  stroke-width: 0.480295;
}
.l10{
  fill: #ff00ff;
  stroke: #ff00ff;
  stroke-linecap:round;
  stroke-linejoin:round;
  stroke-width: 0.480295;
}
.l11{
  fill: #00ff00; fill-opacity: 0.5;
  stroke: #00ff00;
  stroke-linecap:round;
  stroke-linejoin:round;
  stroke-width: 0.480295;
}
.l12{
  fill: #0044ff; fill-opacity: 0.5;
  stroke: #0044ff;
  stroke-linecap:round;
  stroke-linejoin:round;
  stroke-width: 0.480295;
}
.l13{
  fill: #aaaa00; fill-opacity: 0.5;
  stroke: #aaaa00;
  stroke-linecap:round;
  stroke-linejoin:round;
  stroke-width: 0.480295;
}
.l14{
  fill: #aaccaa; fill-opacity: 0.2;
  stroke: #aaccaa;
  stroke-linecap:round;
  stroke-linejoin:round;
  stroke-width: 0.480295;
}
.l15{
  fill: #ff7777; fill-opacity: 0.5;
  stroke: #ff7777;
  stroke-linecap:round;
  stroke-linejoin:round;
  stroke-width: 0.480295;
}
.l16{
  fill: #bfff81; fill-opacity: 0.5;
  stroke: #bfff81;
  stroke-linecap:round;
  stroke-linejoin:round;
  stroke-width: 0.480295;
}
.l17{
  fill: #00ffcc; fill-opacity: 0.2;
  stroke: #00ffcc;
  stroke-linecap:round;
  stroke-linejoin:round;
  stroke-width: 0.480295;
}
.l18{
  fill: #ce0097; fill-opacity: 0.5;
  stroke: #ce0097;
  stroke-linecap:round;
  stroke-linejoin:round;
  stroke-width: 0.480295;
}
.l19{
  fill: #d2d46b; fill-opacity: 0.2;
  stroke: #d2d46b;
  stroke-linecap:round;
  stroke-linejoin:round;
  stroke-width: 0.480295;
}
.l20{
  fill: #ef6158; fill-opacity: 0.2;
  stroke: #ef6158;
  stroke-linecap:round;
  stroke-linejoin:round;
  stroke-width: 0.480295;
}
.l21{
  fill: #fdb200; fill-opacity: 0.2;
  stroke: #fdb200;
  stroke-linecap:round;
  stroke-linejoin:round;
  stroke-width: 0.480295;
}
text {font-family: Sans-Serif;}
</style>
<rect class="l0" x="0" y="0" width="1040" height="943"/>
<path class="l1" d="M764.287 857.219L774.279 847.226"/>
<path class="l1" d="M764.287 697.335L774.279 707.328"/>
<path class="l1" d="M764.287 497.481L774.279 507.474"/>
<path class="l1" d="M764.287 657.364L774.279 647.372"/>
<path class="l1" d="M714.323 447.517L724.316 437.525"/>
<path class="l1" d="M564.432 437.525L574.425 447.517"/>
<path class="l3" style="fill:none;" d="M734.308 487.488L914.177 487.488L914.177 867.211L734.308 867.211L734.308 487.488z"/>
<path class="l4" d="M751.796 235.172L751.796 280.14"/>
<path class="l4" d="M764.287 227.678L764.287 240.169"/>
<path class="l4" d="M764.287 275.143L764.287 287.634"/>
<path class="l4" d="M741.803 242.667L741.803 272.645"/>
<path class="l4" d="M751.796 275.143L764.287 275.143"/>
<path class="l4" d="M756.792 240.169L764.287 240.169"/>
<path class="l4" d="M724.316 257.656L731.81 257.656"/>
<path class="l4" d="M756.792 237.67L751.796 240.169L756.792 242.667L756.792 237.67"/>
<circle class="l4" cx="736.807" cy="257.656" r="4.99636" style="fill:none;" />
<path class="l4" d="M44.8111 863.464L44.8111 867.211"/>
<path class="l4" d="M164.724 177.714L164.724 337.598"/>
<path class="l4" d="M164.724 177.714L324.607 257.656"/>
<path class="l4" d="M164.724 337.598L324.607 257.656"/>
<path class="l4" d="M124.753 137.743L364.578 137.743"/>
<path class="l4" d="M364.578 137.743L364.578 377.568"/>
<path class="l4" d="M124.753 137.743L124.753 377.568"/>
<path class="l4" d="M124.753 377.568L364.578 377.568"/>
<path class="l4" d="M774.279 597.408L774.279 607.401"/>
<path class="l4" d="M774.279 597.408L781.774 594.91"/>
<path class="l4" d="M766.785 589.914L781.774 594.91"/>
<path class="l4" d="M766.785 589.914L781.774 584.917"/>
<path class="l4" d="M766.785 579.921L781.774 584.917"/>
<path class="l4" d="M766.785 579.921L781.774 574.925"/>
<path class="l4" d="M766.785 569.928L781.774 574.925"/>
<path class="l4" d="M766.785 569.928L781.774 564.932"/>
<path class="l4" d="M766.785 559.936L781.774 564.932"/>
<path class="l4" d="M766.785 559.936L774.279 557.437"/>
<path class="l4" d="M774.279 547.445L774.279 557.437"/>
<path class="l4" d="M774.279 797.262L774.279 807.255"/>
<path class="l4" d="M774.279 797.262L781.774 794.764"/>
<path class="l4" d="M766.785 789.768L781.774 794.764"/>
<path class="l4" d="M766.785 789.768L781.774 784.772"/>
<path class="l4" d="M766.785 779.775L781.774 784.772"/>
<path class="l4" d="M766.785 779.775L781.774 774.779"/>
<path class="l4" d="M766.785 769.783L781.774 774.779"/>
<path class="l4" d="M766.785 769.783L781.774 764.786"/>
<path class="l4" d="M766.785 759.79L781.774 764.786"/>
<path class="l4" d="M766.785 759.79L774.279 757.292"/>
<path class="l4" d="M774.279 747.299L774.279 757.292"/>
<path class="l4" d="M664.359 447.517L674.352 447.517"/>
<path class="l4" d="M661.861 440.023L664.359 447.517"/>
<path class="l4" d="M656.865 455.012L661.861 440.023"/>
<path class="l4" d="M651.868 440.023L656.865 455.012"/>
<path class="l4" d="M646.872 455.012L651.868 440.023"/>
<path class="l4" d="M641.876 440.023L646.872 455.012"/>
<path class="l4" d="M636.879 455.012L641.876 440.023"/>
<path class="l4" d="M631.883 440.023L636.879 455.012"/>
<path class="l4" d="M626.887 455.012L631.883 440.023"/>
<path class="l4" d="M624.389 447.517L626.887 455.012"/>
<path class="l4" d="M614.396 447.517L624.389 447.517"/>
<path class="l4" d="M499.48 437.525L524.461 437.525"/>
<path class="l4" d="M464.505 437.525L489.487 437.525"/>
<path class="l4" d="M489.487 422.536L489.487 452.514"/>
<path class="l4" d="M499.48 422.536L499.48 452.514"/>
<path class="l5" d="M244.665 54.6789L244.665 57.8017"/>
<path class="l5" d="M249.662 44.0617L244.665 40.3144L239.669 44.0617L239.669 50.9317L244.665 54.6789L249.662 50.9317L249.662 44.0617"/>
<path class="l5" d="M243.416 56.5526L245.914 56.5526L245.914 59.0507L243.416 59.0507L243.416 56.5526z"/>
<path class="l5" d="M244.665 887.197L244.665 890.32"/>
<path class="l5" d="M239.669 900.937L244.665 904.684L249.662 900.937L249.662 894.067L244.665 890.32L239.669 894.067L239.669 900.937"/>
<path class="l5" d="M243.416 885.948L245.914 885.948L245.914 888.446L243.416 888.446L243.416 885.948z"/>
<path class="l5" d="M844.228 367.576L847.351 367.576"/>
<path class="l5" d="M857.968 372.572L861.715 367.576L857.968 362.579L851.098 362.579L847.351 367.576L851.098 372.572L857.968 372.572"/>
<path class="l5" d="M842.979 366.327L845.477 366.327L845.477 368.825L842.979 368.825L842.979 366.327z"/>
<path class="l5" d="M44.8111 887.197L44.8111 890.32"/>
<path class="l5" d="M39.8148 900.937L44.8111 904.684L49.8075 900.937L49.8075 894.067L44.8111 890.32L39.8148 894.067L39.8148 900.937"/>
<path class="l5" d="M43.562 885.948L46.0602 885.948L46.0602 888.446L43.562 888.446L43.562 885.948z"/>
<path class="l5" d="M61.6738 217.685L64.7966 217.685"/>
<path class="l5" d="M51.0566 212.689L47.3093 217.685L51.0566 222.681L57.9266 222.681L61.6738 217.685L57.9266 212.689L51.0566 212.689"/>
<path class="l5" d="M63.5475 216.436L66.0456 216.436L66.0456 218.934L63.5475 218.934L63.5475 216.436z"/>
<path class="l5" d="M204.695 437.525L204.695 440.647"/>
<path class="l5" d="M199.698 451.265L204.695 455.012L209.691 451.265L209.691 444.395L204.695 440.647L199.698 444.395L199.698 451.265"/>
<path class="l5" d="M203.445 436.276L205.944 436.276L205.944 438.774L203.445 438.774L203.445 436.276z"/>
<path class="l5" d="M759.29 255.158L764.287 257.656L759.29 260.154L759.29 255.158"/>
<path class="l5" d="M761.788 285.136L766.785 285.136L766.785 290.132L761.788 290.132L761.788 285.136z"/>
<path class="l5" d="M721.817 255.158L726.814 255.158L726.814 260.154L721.817 260.154L721.817 255.158z"/>
<path class="l5" d="M761.788 225.18L766.785 225.18L766.785 230.176L761.788 230.176L761.788 225.18z"/>
<path class="l5" d="M764.208 257.578L764.365 257.578L764.365 257.734L764.208 257.734L764.208 257.578z"/>
<path class="l5" d="M43.562 865.962L46.0602 865.962L46.0602 868.461L43.562 868.461L43.562 865.962z"/>
<path class="l5" d="M242.167 135.245L247.164 135.245L247.164 140.242L242.167 140.242L242.167 135.245z"/>
<path class="l5" d="M122.255 215.187L127.251 215.187L127.251 220.183L122.255 220.183L122.255 215.187z"/>
<path class="l5" d="M122.255 295.129L127.251 295.129L127.251 300.125L122.255 300.125L122.255 295.129z"/>
<path class="l5" d="M362.08 255.158L367.076 255.158L367.076 260.154L362.08 260.154L362.08 255.158z"/>
<path class="l5" d="M202.196 375.07L207.193 375.07L207.193 380.067L202.196 380.067L202.196 375.07z"/>
<path class="l5" d="M242.167 375.07L247.164 375.07L247.164 380.067L242.167 380.067L242.167 375.07z"/>
<path class="l5" d="M643.125 526.21L645.623 526.21L645.623 528.708L643.125 528.708L643.125 526.21z"/>
<path class="l5" d="M603.154 256.407L605.652 256.407L605.652 258.905L603.154 258.905L603.154 256.407z"/>
<path class="l5" d="M771.781 604.903L776.777 604.903L776.777 609.899L771.781 609.899L771.781 604.903z"/>
<path class="l5" d="M771.781 544.946L776.777 544.946L776.777 549.943L771.781 549.943L771.781 544.946z"/>
<path class="l5" d="M751.796 574.925L756.792 574.925L756.792 579.921L751.796 579.921L751.796 574.925z"/>
<path class="l5" d="M771.781 804.757L776.777 804.757L776.777 809.753L771.781 809.753L771.781 804.757z"/>
<path class="l5" d="M771.781 744.801L776.777 744.801L776.777 749.797L771.781 749.797L771.781 744.801z"/>
<path class="l5" d="M751.796 774.779L756.792 774.779L756.792 779.775L751.796 779.775L751.796 774.779z"/>
<path class="l5" d="M671.854 445.019L676.85 445.019L676.85 450.016L671.854 450.016L671.854 445.019z"/>
<path class="l5" d="M611.898 445.019L616.894 445.019L616.894 450.016L611.898 450.016L611.898 445.019z"/>
<path class="l5" d="M641.876 465.005L646.872 465.005L646.872 470.001L641.876 470.001L641.876 465.005z"/>
<path class="l5" d="M462.007 435.027L467.003 435.027L467.003 440.023L462.007 440.023L462.007 435.027z"/>
<path class="l5" d="M521.963 435.027L526.96 435.027L526.96 440.023L521.963 440.023L521.963 435.027z"/>
<path class="l5" d="M764.13 857.063L764.443 857.063L764.443 857.375L764.13 857.375L764.13 857.063z"/>
<path class="l5" d="M773.03 835.984L775.528 835.984L775.528 838.482L773.03 838.482L773.03 835.984z"/>
<path class="l5" d="M773.03 736.057L775.528 736.057L775.528 738.555L773.03 738.555L773.03 736.057z"/>
<path class="l5" d="M764.13 697.179L764.443 697.179L764.443 697.491L764.13 697.491L764.13 697.179z"/>
<path class="l5" d="M773.03 536.203L775.528 536.203L775.528 538.701L773.03 538.701L773.03 536.203z"/>
<path class="l5" d="M773.03 636.13L775.528 636.13L775.528 638.628L773.03 638.628L773.03 636.13z"/>
<path class="l5" d="M764.13 497.325L764.443 497.325L764.443 497.637L764.13 497.637L764.13 497.325z"/>
<path class="l5" d="M764.13 657.208L764.443 657.208L764.443 657.521L764.13 657.521L764.13 657.208z"/>
<path class="l5" d="M503.227 676.101L505.725 676.101L505.725 678.599L503.227 678.599L503.227 676.101z"/>
<path class="l5" d="M724.16 437.369L724.472 437.369L724.472 437.681L724.16 437.681L724.16 437.369z"/>
<path class="l5" d="M564.276 437.369L564.588 437.369L564.588 437.681L564.276 437.681L564.276 437.369z"/>
<path class="l5" d="M703.081 446.268L705.579 446.268L705.579 448.767L703.081 448.767L703.081 446.268z"/>
<path class="l5" d="M533.205 436.276L535.703 436.276L535.703 438.774L533.205 438.774L533.205 436.276z"/>
<path class="l5" d="M603.154 446.268L605.652 446.268L605.652 448.767L603.154 448.767L603.154 446.268z"/>
<path class="l7" d="M244.665 137.743L244.665 217.685"/>
<path class="l7" d="M124.753 217.685L164.724 217.685"/>
<path class="l7" d="M124.753 297.627L164.724 297.627"/>
<path class="l7" d="M324.607 257.656L364.578 257.656"/>
<path class="l7" d="M204.695 317.612L204.695 377.568"/>
<path class="l7" d="M244.665 297.627L244.665 377.568"/>
<text fill="#00ccee"  xml:space="preserve" font-size="17.1475" transform="translate(250.867, 37.9723) rotate(270)" >VDD</text>
<text fill="#00ccee"  xml:space="preserve" font-size="17.1475" transform="translate(249.935, 941.026) rotate(270)" >VSS</text>
<text fill="#00ccee"  xml:space="preserve" font-size="17.1475" transform="translate(864.058, 373.778)" >VOUT</text>
<text fill="#00ccee"  xml:space="preserve" font-size="17.1475" transform="translate(50.081, 943.026) rotate(270)" >SUB</text>
<text fill="#00ccee"  xml:space="preserve" font-size="17.1475" transform="translate(-0.0327884, 222.955)" >VREF</text>
<text fill="#00ccee"  xml:space="preserve" font-size="17.1475" transform="translate(209.964, 502.354) rotate(270)" >IBIAS</text>
<text fill="#ff0000"  xml:space="preserve" font-size="7.79432" transform="translate(766.785, 282.22)" >D</text>
<text fill="#ff0000"  xml:space="preserve" font-size="7.79432" transform="translate(766.785, 238.306)" >S</text>
<text fill="#ff0000"  xml:space="preserve" font-size="7.79432" transform="translate(764.287, 254.74)" >B</text>
<text fill="#ff0000"  xml:space="preserve" font-size="7.79432" transform="translate(725.81, 252.242)" >G</text>
<text fill="#cccccc"  xml:space="preserve" font-size="10.3924" transform="translate(774.279, 246.429)" >pfet_05v0</text>
<text fill="#aaaa00"  xml:space="preserve" font-size="10.3924" transform="translate(775.528, 280.832)" >10 x 50.00u / 0.50u</text>
<text fill="#aaaa00"  xml:space="preserve" font-size="10.3924" transform="translate(775.528, 268.341)" >nf=1</text>
<text fill="#cccccc"  xml:space="preserve" font-size="10.3924" transform="translate(710.297, 237.114)" >XMpass</text>
<text fill="#88dd00"  xml:space="preserve" font-size="7.79432" transform="translate(47.3201, 862.973) rotate(270)" >NC</text>
<text fill="#cccccc"  xml:space="preserve" font-size="31.1773" transform="translate(187.207, 268.478)" >OTA</text>
<text fill="#cccccc"  xml:space="preserve" font-size="10.3924" transform="translate(349.589, 135.188)" >x1</text>
<text fill="#cccccc"  xml:space="preserve" font-size="10.3924" transform="translate(236.186, 172.718) rotate(270)" >VDD</text>
<text fill="#cccccc"  xml:space="preserve" font-size="10.3924" transform="translate(130.229, 213.132)" >VREF</text>
<text fill="#cccccc"  xml:space="preserve" font-size="10.3924" transform="translate(129.735, 293.073)" >VFB</text>
<text fill="#cccccc"  xml:space="preserve" font-size="10.3924" transform="translate(330.582, 250.604)" >VOTA</text>
<text fill="#cccccc"  xml:space="preserve" font-size="10.3924" transform="translate(196.215, 365.078) rotate(270)" >IBIAS</text>
<text fill="#cccccc"  xml:space="preserve" font-size="10.3924" transform="translate(236.186, 365.078) rotate(270)" >VSS</text>
<text fill="#00ccee"  xml:space="preserve" font-size="14.0298" transform="translate(609.876, 522.857)" >VDD</text>
<text fill="#00ccee"  xml:space="preserve" font-size="14.0298" transform="translate(567.905, 253.054)" >Vota</text>
<text fill="#aaaa00"  xml:space="preserve" font-size="10.3924" transform="translate(789.268, 593.105)" >1 * 1e-6 / 5e-6</text>
<text fill="#cccccc"  xml:space="preserve" font-size="10.3924" transform="translate(789.268, 575.617)" >ppolyf_u_1k</text>
<text fill="#ff0000"  xml:space="preserve" font-size="7.79432" transform="translate(754.29, 572.009)" >B</text>
<text fill="#cccccc"  xml:space="preserve" font-size="10.3924" transform="translate(789.268, 558.13)" >XR1[9:0]</text>
<text fill="#aaaa00"  xml:space="preserve" font-size="10.3924" transform="translate(789.268, 792.959)" >1 * 1e-6 / 5e-6</text>
<text fill="#cccccc"  xml:space="preserve" font-size="10.3924" transform="translate(789.268, 775.472)" >ppolyf_u_1k</text>
<text fill="#ff0000"  xml:space="preserve" font-size="7.79432" transform="translate(754.29, 771.863)" >B</text>
<text fill="#cccccc"  xml:space="preserve" font-size="10.3924" transform="translate(789.268, 757.984)" >XR2[9:0]</text>
<text fill="#aaaa00"  xml:space="preserve" font-size="10.3924" transform="translate(660.056, 432.528) rotate(270)" >1 * 1e-6 / 10e-6</text>
<text fill="#cccccc"  xml:space="preserve" font-size="10.3924" transform="translate(642.568, 432.528) rotate(270)" >ppolyf_u_1k</text>
<text fill="#ff0000"  xml:space="preserve" font-size="7.79432" transform="translate(638.96, 467.507) rotate(270)" >B</text>
<text fill="#cccccc"  xml:space="preserve" font-size="10.3924" transform="translate(625.081, 432.528) rotate(270)" >XRc[29:0]</text>
<text fill="#cccccc"  xml:space="preserve" font-size="10.3924" transform="translate(475.191, 417.539) rotate(270)" >XCc</text>
<text fill="#aaaa00"  xml:space="preserve" font-size="10.3924" transform="translate(510.165, 417.539) rotate(270)" >4 * 25e-6 / 25e-6</text>
<text fill="#cccccc"  xml:space="preserve" font-size="10.3924" transform="translate(492.678, 417.539) rotate(270)" >cap_mim_1f0fF</text>
<text fill="#00ccee"  xml:space="preserve" font-size="14.0298" transform="translate(776.777, 832.631)" >Vr_fb2[9:1],VSS</text>
<text fill="#00ccee"  xml:space="preserve" font-size="14.0298" transform="translate(776.777, 732.704)" >Vfb,Vr_fb2[9:1]</text>
<text fill="#00ccee"  xml:space="preserve" font-size="14.0298" transform="translate(776.777, 532.85)" >VOUT,Vr_fb1[9:1]</text>
<text fill="#00ccee"  xml:space="preserve" font-size="14.0298" transform="translate(776.777, 632.777)" >Vr_fb1[9:1],Vfb</text>
<text fill="#00ccee"  xml:space="preserve" font-size="14.0298" transform="translate(477.978, 672.748)" >Vfb</text>
<text fill="#00ccee"  xml:space="preserve" font-size="14.0298" transform="translate(699.728, 445.019) rotate(270)" >Vr_mc[29:1],VOUT</text>
<text fill="#00ccee"  xml:space="preserve" font-size="14.0298" transform="translate(536.952, 432.923)" >Vmc</text>
<text fill="#00ccee"  xml:space="preserve" font-size="14.0298" transform="translate(599.801, 445.019) rotate(270)" >Vmc,Vr_mc[29:1]</text>
<path class="l1" d="M64.7966 217.685L124.753 217.685"/>
<path class="l1" d="M204.695 377.568L204.695 437.525"/>
<path class="l1" d="M84.782 297.627L124.753 297.627"/>
<path class="l1" d="M764.287 257.656L784.272 257.656"/>
<path class="l1" d="M784.272 207.692L784.272 257.656"/>
<path class="l1" d="M764.287 207.692L784.272 207.692"/>
<path class="l1" d="M244.665 57.8017L244.665 137.743"/>
<path class="l1" d="M764.287 367.576L844.228 367.576"/>
<path class="l1" d="M44.8111 867.211L44.8111 887.197"/>
<path class="l1" style="stroke-width:1.92118;" d="M774.279 807.255L774.279 847.226"/>
<path class="l1" d="M764.287 457.51L764.287 497.481"/>
<path class="l1" style="stroke-width:1.92118;" d="M774.279 707.328L774.279 747.299"/>
<path class="l1" style="stroke-width:1.92118;" d="M774.279 607.401L774.279 647.372"/>
<path class="l1" style="stroke-width:1.92118;" d="M774.279 507.474L774.279 547.445"/>
<path class="l1" d="M764.287 657.364L764.287 697.335"/>
<path class="l1" style="stroke-width:1.92118;" d="M674.352 447.517L714.323 447.517"/>
<path class="l1" style="stroke-width:1.92118;" d="M574.425 447.517L614.396 447.517"/>
<path class="l1" d="M764.287 437.525L764.287 457.51"/>
<path class="l1" d="M724.316 437.525L764.287 437.525"/>
<path class="l1" d="M644.374 467.503L644.374 777.277"/>
<path class="l1" d="M644.374 777.277L754.294 777.277"/>
<path class="l1" d="M644.374 577.423L754.294 577.423"/>
<path class="l1" d="M524.461 437.525L564.432 437.525"/>
<path class="l1" d="M424.534 437.525L464.505 437.525"/>
<path class="l1" d="M764.287 357.583L764.287 437.525"/>
<path class="l1" d="M764.287 277.641L764.287 357.583"/>
<path class="l1" d="M364.578 257.656L724.316 257.656"/>
<path class="l1" d="M424.534 257.656L424.534 437.525"/>
<path class="l1" d="M244.665 87.7798L764.287 87.7798"/>
<path class="l1" d="M764.287 87.7798L764.287 227.678"/>
<path class="l1" d="M244.665 857.219L764.287 857.219"/>
<path class="l1" d="M84.782 677.35L764.287 677.35"/>
<path class="l1" d="M84.782 297.627L84.782 677.35"/>
<path class="l1" d="M244.665 377.568L244.665 887.197"/>
<circle class="l1" cx="244.665" cy="87.7798" r="3.6973"/>
<circle class="l1" cx="424.534" cy="257.656" r="3.6973"/>
<circle class="l1" cx="764.287" cy="677.35" r="3.6973"/>
<circle class="l1" cx="244.665" cy="857.219" r="3.6973"/>
<circle class="l1" cx="764.287" cy="437.525" r="3.6973"/>
<circle class="l1" cx="764.287" cy="437.525" r="3.6973"/>
<circle class="l1" cx="764.287" cy="437.525" r="3.6973"/>
<circle class="l1" cx="764.287" cy="367.576" r="3.6973"/>
<circle class="l1" cx="764.287" cy="207.692" r="3.6973"/>
<circle class="l1" cx="644.374" cy="577.423" r="3.6973"/>
<text fill="#cccccc"  xml:space="preserve" font-size="10.3924" transform="translate(924.17, 496.925)" >Matching (interdigitated)</text>
</svg>
