<svg xmlns="http://www.w3.org/2000/svg" xmlns:xlink="http://www.w3.org/1999/xlink" width="1366" height="552" version="1.1">
<style type="text/css">
.l0{
  fill: #000000;
  stroke: #000000;
  stroke-linecap:round;
  stroke-linejoin:round;
  stroke-width: 1.72098;
}
.l1{
  fill: #00ccee;
  stroke: #00ccee;
  stroke-linecap:round;
  stroke-linejoin:round;
  stroke-width: 1.72098;
}
.l2{
  fill: #4f4f4f; fill-opacity: 0.2;
  stroke: #4f4f4f;
  stroke-linecap:round;
  stroke-linejoin:round;
  stroke-width: 1.72098;
}
.l3{
  fill: #cccccc; fill-opacity: 0.5;
  stroke: #cccccc;
  stroke-linecap:round;
  stroke-linejoin:round;
  stroke-width: 1.72098;
}
.l4{
  fill: #88dd00;
  stroke: #88dd00;
  stroke-linecap:round;
  stroke-linejoin:round;
  stroke-width: 1.72098;
}
.l5{
  fill: #bb2200;
  stroke: #bb2200;
  stroke-linecap:round;
  stroke-linejoin:round;
  stroke-width: 1.72098;
}
.l6{
  fill: #00ccee; fill-opacity: 0.5;
  stroke: #00ccee;
  stroke-linecap:round;
  stroke-linejoin:round;
  stroke-width: 1.72098;
}
.l7{
  fill: #ff0000; fill-opacity: 0.5;
  stroke: #ff0000;
  stroke-linecap:round;
  stroke-linejoin:round;
  stroke-width: 1.72098;
}
.l8{
  fill: #ffff00; fill-opacity: 0.5;
  stroke: #ffff00;
  stroke-linecap:round;
  stroke-linejoin:round;
  stroke-width: 1.72098;
}
.l9{
  fill: #ffffff; fill-opacity: 0.5;
  stroke: #ffffff;
  stroke-linecap:round;
  stroke-linejoin:round;
  stroke-width: 1.72098;
}
.l10{
  fill: #ff00ff;
  stroke: #ff00ff;
  stroke-linecap:round;
  stroke-linejoin:round;
  stroke-width: 1.72098;
}
.l11{
  fill: #00ff00; fill-opacity: 0.5;
  stroke: #00ff00;
  stroke-linecap:round;
  stroke-linejoin:round;
  stroke-width: 1.72098;
}
.l12{
  fill: #0044ff; fill-opacity: 0.5;
  stroke: #0044ff;
  stroke-linecap:round;
  stroke-linejoin:round;
  stroke-width: 1.72098;
}
.l13{
  fill: #aaaa00; fill-opacity: 0.5;
  stroke: #aaaa00;
  stroke-linecap:round;
  stroke-linejoin:round;
  stroke-width: 1.72098;
}
.l14{
  fill: #aaccaa; fill-opacity: 0.2;
  stroke: #aaccaa;
  stroke-linecap:round;
  stroke-linejoin:round;
  stroke-width: 1.72098;
}
.l15{
  fill: #ff7777; fill-opacity: 0.5;
  stroke: #ff7777;
  stroke-linecap:round;
  stroke-linejoin:round;
  stroke-width: 1.72098;
}
.l16{
  fill: #bfff81; fill-opacity: 0.5;
  stroke: #bfff81;
  stroke-linecap:round;
  stroke-linejoin:round;
  stroke-width: 1.72098;
}
.l17{
  fill: #00ffcc; fill-opacity: 0.2;
  stroke: #00ffcc;
  stroke-linecap:round;
  stroke-linejoin:round;
  stroke-width: 1.72098;
}
.l18{
  fill: #ce0097; fill-opacity: 0.5;
  stroke: #ce0097;
  stroke-linecap:round;
  stroke-linejoin:round;
  stroke-width: 1.72098;
}
.l19{
  fill: #d2d46b; fill-opacity: 0.2;
  stroke: #d2d46b;
  stroke-linecap:round;
  stroke-linejoin:round;
  stroke-width: 1.72098;
}
.l20{
  fill: #ef6158; fill-opacity: 0.2;
  stroke: #ef6158;
  stroke-linecap:round;
  stroke-linejoin:round;
  stroke-width: 1.72098;
}
.l21{
  fill: #fdb200; fill-opacity: 0.2;
  stroke: #fdb200;
  stroke-linecap:round;
  stroke-linejoin:round;
  stroke-width: 1.72098;
}
text {font-family: Sans-Serif;}
</style>
<rect class="l0" x="0" y="0" width="1366" height="552"/>
<path class="l1" d="M579.775 515.779L592.523 528.527"/>
<path class="l1" d="M579.775 260.818L592.523 273.566"/>
<path class="l1" d="M579.775 464.787L592.523 452.039"/>
<path class="l1" d="M516.035 197.078L528.783 184.33"/>
<path class="l1" d="M324.814 184.33L337.562 197.078"/>
<path class="l3" style="fill:none;" d="M541.531 248.07L770.995 248.07L770.995 554L541.531 554L541.531 248.07z"/>
<path class="l4" d="M69.8536 0L69.8536 107.842"/>
<path class="l4" d="M0 107.842L69.8536 107.842"/>
<path class="l4" d="M592.523 388.299L592.523 401.047"/>
<path class="l4" d="M592.523 388.299L602.084 385.112"/>
<path class="l4" d="M582.962 378.738L602.084 385.112"/>
<path class="l4" d="M582.962 378.738L602.084 372.364"/>
<path class="l4" d="M582.962 365.99L602.084 372.364"/>
<path class="l4" d="M582.962 365.99L602.084 359.616"/>
<path class="l4" d="M582.962 353.242L602.084 359.616"/>
<path class="l4" d="M582.962 353.242L602.084 346.868"/>
<path class="l4" d="M582.962 340.494L602.084 346.868"/>
<path class="l4" d="M582.962 340.494L592.523 337.306"/>
<path class="l4" d="M592.523 324.558L592.523 337.306"/>
<path class="l4" d="M452.295 197.078L465.043 197.078"/>
<path class="l4" d="M449.107 187.517L452.295 197.078"/>
<path class="l4" d="M442.733 206.639L449.107 187.517"/>
<path class="l4" d="M436.359 187.517L442.733 206.639"/>
<path class="l4" d="M429.985 206.639L436.359 187.517"/>
<path class="l4" d="M423.611 187.517L429.985 206.639"/>
<path class="l4" d="M417.237 206.639L423.611 187.517"/>
<path class="l4" d="M410.863 187.517L417.237 206.639"/>
<path class="l4" d="M404.489 206.639L410.863 187.517"/>
<path class="l4" d="M401.302 197.078L404.489 206.639"/>
<path class="l4" d="M388.554 197.078L401.302 197.078"/>
<path class="l4" d="M241.952 184.33L273.822 184.33"/>
<path class="l4" d="M197.334 184.33L229.204 184.33"/>
<path class="l4" d="M229.204 165.208L229.204 203.452"/>
<path class="l4" d="M241.952 165.208L241.952 203.452"/>
<path class="l5" d="M681.759 95.0939L685.743 95.0939"/>
<path class="l5" d="M699.288 101.468L704.068 95.0939L699.288 88.7199L690.523 88.7199L685.743 95.0939L690.523 101.468L699.288 101.468"/>
<path class="l5" d="M680.166 93.5004L683.353 93.5004L683.353 96.6875L680.166 96.6875L680.166 93.5004z"/>
<path class="l5" d="M425.205 297.469L428.392 297.469L428.392 300.656L425.205 300.656L425.205 297.469z"/>
<path class="l5" d="M589.336 397.86L595.71 397.86L595.71 404.234L589.336 404.234L589.336 397.86z"/>
<path class="l5" d="M589.336 321.371L595.71 321.371L595.71 327.745L589.336 327.745L589.336 321.371z"/>
<path class="l5" d="M563.84 359.616L570.214 359.616L570.214 365.99L563.84 365.99L563.84 359.616z"/>
<path class="l5" d="M461.856 193.891L468.23 193.891L468.23 200.265L461.856 200.265L461.856 193.891z"/>
<path class="l5" d="M385.367 193.891L391.741 193.891L391.741 200.265L385.367 200.265L385.367 193.891z"/>
<path class="l5" d="M423.611 219.387L429.985 219.387L429.985 225.761L423.611 225.761L423.611 219.387z"/>
<path class="l5" d="M194.147 181.143L200.521 181.143L200.521 187.517L194.147 187.517L194.147 181.143z"/>
<path class="l5" d="M270.635 181.143L277.009 181.143L277.009 187.517L270.635 187.517L270.635 181.143z"/>
<path class="l5" d="M579.576 515.58L579.974 515.58L579.974 515.978L579.576 515.978L579.576 515.58z"/>
<path class="l5" d="M590.929 310.217L594.116 310.217L594.116 313.404L590.929 313.404L590.929 310.217z"/>
<path class="l5" d="M590.929 437.697L594.116 437.697L594.116 440.884L590.929 440.884L590.929 437.697z"/>
<path class="l5" d="M579.576 260.619L579.974 260.619L579.974 261.018L579.576 261.018L579.576 260.619z"/>
<path class="l5" d="M579.576 464.588L579.974 464.588L579.974 464.986L579.576 464.986L579.576 464.588z"/>
<path class="l5" d="M246.733 488.689L249.92 488.689L249.92 491.876L246.733 491.876L246.733 488.689z"/>
<path class="l5" d="M528.583 184.131L528.982 184.131L528.982 184.529L528.583 184.529L528.583 184.131z"/>
<path class="l5" d="M324.615 184.131L325.013 184.131L325.013 184.529L324.615 184.529L324.615 184.131z"/>
<path class="l5" d="M501.693 195.485L504.88 195.485L504.88 198.672L501.693 198.672L501.693 195.485z"/>
<path class="l5" d="M284.977 182.737L288.164 182.737L288.164 185.924L284.977 185.924L284.977 182.737z"/>
<path class="l5" d="M374.213 195.485L377.4 195.485L377.4 198.672L374.213 198.672L374.213 195.485z"/>
<text fill="#00ccee"  xml:space="preserve" font-size="21.8756" transform="translate(707.056, 103.006)" >VOUT</text>
<text fill="#00ccee"  xml:space="preserve" font-size="17.8982" transform="translate(383.611, 293.191)" >VDD</text>
<text fill="#aaaa00"  xml:space="preserve" font-size="13.2579" transform="translate(611.645, 382.808)" >1 * 1e-6 / 5e-6</text>
<text fill="#cccccc"  xml:space="preserve" font-size="13.2579" transform="translate(611.645, 360.499)" >ppolyf_u_1k</text>
<text fill="#ff0000"  xml:space="preserve" font-size="9.94346" transform="translate(566.401, 355.896)" >B</text>
<text fill="#cccccc"  xml:space="preserve" font-size="13.2579" transform="translate(611.645, 338.19)" >XR1[9:0]</text>
<text fill="#aaaa00"  xml:space="preserve" font-size="13.2579" transform="translate(446.804, 177.956) rotate(270)" >1 * 1e-6 / 10e-6</text>
<text fill="#cccccc"  xml:space="preserve" font-size="13.2579" transform="translate(424.495, 177.956) rotate(270)" >ppolyf_u_1k</text>
<text fill="#ff0000"  xml:space="preserve" font-size="9.94346" transform="translate(419.892, 223.2) rotate(270)" >B</text>
<text fill="#cccccc"  xml:space="preserve" font-size="13.2579" transform="translate(402.186, 177.956) rotate(270)" >XRc[29:0]</text>
<text fill="#cccccc"  xml:space="preserve" font-size="13.2579" transform="translate(210.966, 158.834) rotate(270)" >XCc</text>
<text fill="#aaaa00"  xml:space="preserve" font-size="13.2579" transform="translate(255.584, 158.834) rotate(270)" >4 * 25e-6 / 25e-6</text>
<text fill="#cccccc"  xml:space="preserve" font-size="13.2579" transform="translate(233.275, 158.834) rotate(270)" >cap_mim_1f0fF</text>
<text fill="#00ccee"  xml:space="preserve" font-size="17.8982" transform="translate(595.71, 560.9)" >Vfb,Vr_fb2[9:1]</text>
<text fill="#00ccee"  xml:space="preserve" font-size="17.8982" transform="translate(595.71, 305.939)" >VOUT,Vr_fb1[9:1]</text>
<text fill="#00ccee"  xml:space="preserve" font-size="17.8982" transform="translate(595.71, 433.42)" >Vr_fb1[9:1],Vfb</text>
<text fill="#00ccee"  xml:space="preserve" font-size="17.8982" transform="translate(216.139, 484.412)" >Vfb</text>
<text fill="#00ccee"  xml:space="preserve" font-size="17.8982" transform="translate(497.415, 193.891) rotate(270)" >Vr_mc[29:1],VOUT</text>
<text fill="#00ccee"  xml:space="preserve" font-size="17.8982" transform="translate(289.757, 178.459)" >Vmc</text>
<text fill="#00ccee"  xml:space="preserve" font-size="17.8982" transform="translate(369.935, 193.891) rotate(270)" >Vmc,Vr_mc[29:1]</text>
<path class="l1" d="M579.775 95.0939L681.759 95.0939"/>
<path class="l1" d="M579.775 209.826L579.775 260.818"/>
<path class="l1" style="stroke-width:6.88394;" d="M592.523 528.527L592.523 552"/>
<path class="l1" style="stroke-width:6.88394;" d="M592.523 401.047L592.523 452.039"/>
<path class="l1" style="stroke-width:6.88394;" d="M592.523 273.566L592.523 324.558"/>
<path class="l1" d="M579.775 464.787L579.775 515.779"/>
<path class="l1" style="stroke-width:6.88394;" d="M465.043 197.078L516.035 197.078"/>
<path class="l1" style="stroke-width:6.88394;" d="M337.562 197.078L388.554 197.078"/>
<path class="l1" d="M579.775 184.33L579.775 209.826"/>
<path class="l1" d="M528.783 184.33L579.775 184.33"/>
<path class="l1" d="M426.798 222.574L426.798 552"/>
<path class="l1" d="M426.798 362.803L567.027 362.803"/>
<path class="l1" d="M273.822 184.33L324.814 184.33"/>
<path class="l1" d="M146.342 184.33L197.334 184.33"/>
<path class="l1" d="M579.775 82.3459L579.775 184.33"/>
<path class="l1" d="M579.775 0L579.775 82.3459"/>
<path class="l1" d="M146.342 0L146.342 184.33"/>
<path class="l1" d="M0 490.283L579.775 490.283"/>
<circle class="l1" cx="579.775" cy="490.283" r="4.71677"/>
<circle class="l1" cx="579.775" cy="184.33" r="4.71677"/>
<circle class="l1" cx="579.775" cy="184.33" r="4.71677"/>
<circle class="l1" cx="579.775" cy="184.33" r="4.71677"/>
<circle class="l1" cx="579.775" cy="95.0939" r="4.71677"/>
<circle class="l1" cx="426.798" cy="362.803" r="4.71677"/>
<text fill="#cccccc"  xml:space="preserve" font-size="13.2579" transform="translate(783.743, 260.109)" >Matching (interdigitated)</text>
</svg>
