<svg xmlns="http://www.w3.org/2000/svg" xmlns:xlink="http://www.w3.org/1999/xlink" width="1366" height="552" version="1.1">
<style type="text/css">
.l0{
  fill: #000000;
  stroke: #000000;
  stroke-linecap:round;
  stroke-linejoin:round;
  stroke-width: 0.82995;
}
.l1{
  fill: #00ccee;
  stroke: #00ccee;
  stroke-linecap:round;
  stroke-linejoin:round;
  stroke-width: 0.82995;
}
.l2{
  fill: #4f4f4f; fill-opacity: 0.2;
  stroke: #4f4f4f;
  stroke-linecap:round;
  stroke-linejoin:round;
  stroke-width: 0.82995;
}
.l3{
  fill: #cccccc; fill-opacity: 0.5;
  stroke: #cccccc;
  stroke-linecap:round;
  stroke-linejoin:round;
  stroke-width: 0.82995;
}
.l4{
  fill: #88dd00;
  stroke: #88dd00;
  stroke-linecap:round;
  stroke-linejoin:round;
  stroke-width: 0.82995;
}
.l5{
  fill: #bb2200;
  stroke: #bb2200;
  stroke-linecap:round;
  stroke-linejoin:round;
  stroke-width: 0.82995;
}
.l6{
  fill: #00ccee; fill-opacity: 0.5;
  stroke: #00ccee;
  stroke-linecap:round;
  stroke-linejoin:round;
  stroke-width: 0.82995;
}
.l7{
  fill: #ff0000; fill-opacity: 0.5;
  stroke: #ff0000;
  stroke-linecap:round;
  stroke-linejoin:round;
  stroke-width: 0.82995;
}
.l8{
  fill: #ffff00; fill-opacity: 0.5;
  stroke: #ffff00;
  stroke-linecap:round;
  stroke-linejoin:round;
  stroke-width: 0.82995;
}
.l9{
  fill: #ffffff; fill-opacity: 0.5;
  stroke: #ffffff;
  stroke-linecap:round;
  stroke-linejoin:round;
  stroke-width: 0.82995;
}
.l10{
  fill: #ff00ff;
  stroke: #ff00ff;
  stroke-linecap:round;
  stroke-linejoin:round;
  stroke-width: 0.82995;
}
.l11{
  fill: #00ff00; fill-opacity: 0.5;
  stroke: #00ff00;
  stroke-linecap:round;
  stroke-linejoin:round;
  stroke-width: 0.82995;
}
.l12{
  fill: #0044ff; fill-opacity: 0.5;
  stroke: #0044ff;
  stroke-linecap:round;
  stroke-linejoin:round;
  stroke-width: 0.82995;
}
.l13{
  fill: #aaaa00; fill-opacity: 0.5;
  stroke: #aaaa00;
  stroke-linecap:round;
  stroke-linejoin:round;
  stroke-width: 0.82995;
}
.l14{
  fill: #aaccaa; fill-opacity: 0.2;
  stroke: #aaccaa;
  stroke-linecap:round;
  stroke-linejoin:round;
  stroke-width: 0.82995;
}
.l15{
  fill: #ff7777; fill-opacity: 0.5;
  stroke: #ff7777;
  stroke-linecap:round;
  stroke-linejoin:round;
  stroke-width: 0.82995;
}
.l16{
  fill: #bfff81; fill-opacity: 0.5;
  stroke: #bfff81;
  stroke-linecap:round;
  stroke-linejoin:round;
  stroke-width: 0.82995;
}
.l17{
  fill: #00ffcc; fill-opacity: 0.2;
  stroke: #00ffcc;
  stroke-linecap:round;
  stroke-linejoin:round;
  stroke-width: 0.82995;
}
.l18{
  fill: #ce0097; fill-opacity: 0.5;
  stroke: #ce0097;
  stroke-linecap:round;
  stroke-linejoin:round;
  stroke-width: 0.82995;
}
.l19{
  fill: #d2d46b; fill-opacity: 0.2;
  stroke: #d2d46b;
  stroke-linecap:round;
  stroke-linejoin:round;
  stroke-width: 0.82995;
}
.l20{
  fill: #ef6158; fill-opacity: 0.2;
  stroke: #ef6158;
  stroke-linecap:round;
  stroke-linejoin:round;
  stroke-width: 0.82995;
}
.l21{
  fill: #fdb200; fill-opacity: 0.2;
  stroke: #fdb200;
  stroke-linecap:round;
  stroke-linejoin:round;
  stroke-width: 0.82995;
}
text {font-family: Sans-Serif;}
</style>
<rect class="l0" x="0" y="0" width="1366" height="552"/>
<path class="l3" style="fill:none;" d="M480.639 516.084L1120.01 516.084L1120.01 554L480.639 554L480.639 516.084z"/>
<path class="l3" style="fill:none;" d="M474.492 165.661L1113.86 165.661L1113.86 282.469L474.492 282.469L474.492 165.661z"/>
<path class="l3" style="fill:none;" d="M671.22 313.207L929.427 313.207L929.427 362.39L671.22 362.39L671.22 313.207z"/>
<path class="l3" style="fill:none;" d="M308.502 417.72L874.097 417.72L874.097 509.936L308.502 509.936L308.502 417.72z"/>
<path class="l3" style="fill:none;" d="M376.127 313.207L388.423 313.207L388.423 325.503L394.57 325.503L382.275 337.799L369.979 325.503L376.127 325.503L376.127 313.207"/>
<path class="l3" style="fill:none;" d="M548.265 116.479L560.56 116.479L560.56 128.774L566.708 128.774L554.413 141.07L542.117 128.774L548.265 128.774L548.265 116.479"/>
<path class="l3" style="fill:none;" d="M695.812 116.479L708.107 116.479L708.107 128.774L714.255 128.774L701.959 141.07L689.664 128.774L695.812 128.774L695.812 116.479"/>
<path class="l3" style="fill:none;" d="M892.54 116.479L904.836 116.479L904.836 128.774L910.984 128.774L898.688 141.07L886.393 128.774L892.54 128.774L892.54 116.479"/>
<path class="l3" style="fill:none;" d="M1040.09 116.479L1052.38 116.479L1052.38 128.774L1058.53 128.774L1046.23 141.07L1033.94 128.774L1040.09 128.774L1040.09 116.479"/>
<path class="l4" d="M694.275 213.306L694.275 240.971"/>
<path class="l4" d="M701.959 208.695L701.959 216.38"/>
<path class="l4" d="M701.959 237.897L701.959 245.582"/>
<path class="l4" d="M688.127 217.917L688.127 236.36"/>
<path class="l4" d="M694.275 237.897L701.959 237.897"/>
<path class="l4" d="M697.348 216.38L701.959 216.38"/>
<path class="l4" d="M677.368 227.139L681.979 227.139"/>
<path class="l4" d="M697.348 214.843L694.275 216.38L697.348 217.917L697.348 214.843"/>
<circle class="l4" cx="685.053" cy="227.139" r="3.07389" style="fill:none;" />
<path class="l4" d="M906.373 213.306L906.373 240.971"/>
<path class="l4" d="M898.688 208.695L898.688 216.38"/>
<path class="l4" d="M898.688 237.897L898.688 245.582"/>
<path class="l4" d="M912.521 217.917L912.521 236.36"/>
<path class="l4" d="M898.688 237.897L906.373 237.897"/>
<path class="l4" d="M898.688 216.38L903.299 216.38"/>
<path class="l4" d="M918.668 227.139L923.279 227.139"/>
<path class="l4" d="M903.299 214.843L906.373 216.38L903.299 217.917L903.299 214.843"/>
<circle class="l4" cx="915.595" cy="227.139" r="3.07389" style="fill:none;" />
<path class="l4" d="M562.097 213.306L562.097 240.971"/>
<path class="l4" d="M554.413 208.695L554.413 216.38"/>
<path class="l4" d="M554.413 237.897L554.413 245.582"/>
<path class="l4" d="M568.245 217.917L568.245 236.36"/>
<path class="l4" d="M554.413 237.897L562.097 237.897"/>
<path class="l4" d="M554.413 216.38L559.023 216.38"/>
<path class="l4" d="M574.393 227.139L579.004 227.139"/>
<path class="l4" d="M559.023 214.843L562.097 216.38L559.023 217.917L559.023 214.843"/>
<circle class="l4" cx="571.319" cy="227.139" r="3.07389" style="fill:none;" />
<path class="l4" d="M1038.55 213.306L1038.55 240.971"/>
<path class="l4" d="M1046.23 208.695L1046.23 216.38"/>
<path class="l4" d="M1046.23 237.897L1046.23 245.582"/>
<path class="l4" d="M1032.4 217.917L1032.4 236.36"/>
<path class="l4" d="M1038.55 237.897L1046.23 237.897"/>
<path class="l4" d="M1041.62 216.38L1046.23 216.38"/>
<path class="l4" d="M1021.64 227.139L1026.25 227.139"/>
<path class="l4" d="M1041.62 214.843L1038.55 216.38L1041.62 217.917L1041.62 214.843"/>
<circle class="l4" cx="1029.33" cy="227.139" r="3.07389" style="fill:none;" />
<path class="l4" d="M389.96 459.217L389.96 486.882"/>
<path class="l4" d="M396.107 473.05L406.866 473.05"/>
<path class="l4" d="M382.275 454.606L382.275 462.291"/>
<path class="l4" d="M382.275 483.808L382.275 491.493"/>
<path class="l4" d="M396.107 463.828L396.107 482.271"/>
<path class="l4" d="M382.275 462.291L389.96 462.291"/>
<path class="l4" d="M385.349 483.808L389.96 483.808"/>
<path class="l4" d="M385.349 482.271L382.275 483.808L385.349 485.345L385.349 482.271"/>
<path class="l4" d="M792.639 459.217L792.639 486.882"/>
<path class="l4" d="M775.733 473.05L786.491 473.05"/>
<path class="l4" d="M800.324 454.606L800.324 462.291"/>
<path class="l4" d="M800.324 483.808L800.324 491.493"/>
<path class="l4" d="M786.491 463.828L786.491 482.271"/>
<path class="l4" d="M792.639 462.291L800.324 462.291"/>
<path class="l4" d="M792.639 483.808L797.25 483.808"/>
<path class="l4" d="M797.25 482.271L800.324 483.808L797.25 485.345L797.25 482.271"/>
<path class="l4" d="M694.275 323.966L694.275 351.631"/>
<path class="l4" d="M677.368 337.799L688.127 337.799"/>
<path class="l4" d="M701.959 319.355L701.959 327.04"/>
<path class="l4" d="M701.959 348.557L701.959 356.242"/>
<path class="l4" d="M688.127 328.577L688.127 347.02"/>
<path class="l4" d="M694.275 327.04L701.959 327.04"/>
<path class="l4" d="M694.275 348.557L698.885 348.557"/>
<path class="l4" d="M698.885 347.02L701.959 348.557L698.885 350.094L698.885 347.02"/>
<path class="l4" d="M906.373 323.966L906.373 351.631"/>
<path class="l4" d="M912.521 337.799L923.279 337.799"/>
<path class="l4" d="M898.688 319.355L898.688 327.04"/>
<path class="l4" d="M898.688 348.557L898.688 356.242"/>
<path class="l4" d="M912.521 328.577L912.521 347.02"/>
<path class="l4" d="M898.688 327.04L906.373 327.04"/>
<path class="l4" d="M901.762 348.557L906.373 348.557"/>
<path class="l4" d="M901.762 347.02L898.688 348.557L901.762 350.094L901.762 347.02"/>
<path class="l5" d="M800.324 145.296L800.324 147.217"/>
<path class="l5" d="M803.398 138.764L800.324 136.459L797.25 138.764L797.25 142.991L800.324 145.296L803.398 142.991L803.398 138.764"/>
<path class="l5" d="M799.555 146.449L801.092 146.449L801.092 147.986L799.555 147.986L799.555 146.449z"/>
<path class="l5" d="M1083.12 399.276L1085.04 399.276"/>
<path class="l5" d="M1091.57 402.35L1093.88 399.276L1091.57 396.202L1087.35 396.202L1085.04 399.276L1087.35 402.35L1091.57 402.35"/>
<path class="l5" d="M1082.35 398.508L1083.89 398.508L1083.89 400.045L1082.35 400.045L1082.35 398.508z"/>
<path class="l5" d="M650.856 337.799L652.777 337.799"/>
<path class="l5" d="M644.324 334.725L642.018 337.799L644.324 340.872L648.55 340.872L650.856 337.799L648.55 334.725L644.324 334.725"/>
<path class="l5" d="M652.009 337.03L653.546 337.03L653.546 338.567L652.009 338.567L652.009 337.03z"/>
<path class="l5" d="M382.275 397.355L382.275 399.276"/>
<path class="l5" d="M385.349 390.823L382.275 388.518L379.201 390.823L379.201 395.05L382.275 397.355L385.349 395.05L385.349 390.823"/>
<path class="l5" d="M381.506 398.508L383.043 398.508L383.043 400.045L381.506 400.045L381.506 398.508z"/>
<path class="l5" d="M947.87 337.799L949.792 337.799"/>
<path class="l5" d="M956.324 340.872L958.629 337.799L956.324 334.725L952.097 334.725L949.792 337.799L952.097 340.872L956.324 340.872"/>
<path class="l5" d="M947.102 337.03L948.639 337.03L948.639 338.567L947.102 338.567L947.102 337.03z"/>
<path class="l5" d="M698.885 225.602L701.959 227.139L698.885 228.676L698.885 225.602"/>
<path class="l5" d="M700.422 244.045L703.496 244.045L703.496 247.119L700.422 247.119L700.422 244.045z"/>
<path class="l5" d="M675.831 225.602L678.905 225.602L678.905 228.676L675.831 228.676L675.831 225.602z"/>
<path class="l5" d="M700.422 207.158L703.496 207.158L703.496 210.232L700.422 210.232L700.422 207.158z"/>
<path class="l5" d="M701.911 227.091L702.007 227.091L702.007 227.187L701.911 227.187L701.911 227.091z"/>
<path class="l5" d="M901.762 225.602L898.688 227.139L901.762 228.676L901.762 225.602"/>
<path class="l5" d="M897.151 244.045L900.225 244.045L900.225 247.119L897.151 247.119L897.151 244.045z"/>
<path class="l5" d="M921.742 225.602L924.816 225.602L924.816 228.676L921.742 228.676L921.742 225.602z"/>
<path class="l5" d="M897.151 207.158L900.225 207.158L900.225 210.232L897.151 210.232L897.151 207.158z"/>
<path class="l5" d="M898.64 227.091L898.736 227.091L898.736 227.187L898.64 227.187L898.64 227.091z"/>
<path class="l5" d="M557.487 225.602L554.413 227.139L557.487 228.676L557.487 225.602"/>
<path class="l5" d="M552.876 244.045L555.95 244.045L555.95 247.119L552.876 247.119L552.876 244.045z"/>
<path class="l5" d="M577.467 225.602L580.541 225.602L580.541 228.676L577.467 228.676L577.467 225.602z"/>
<path class="l5" d="M552.876 207.158L555.95 207.158L555.95 210.232L552.876 210.232L552.876 207.158z"/>
<path class="l5" d="M554.365 227.091L554.461 227.091L554.461 227.187L554.365 227.187L554.365 227.091z"/>
<path class="l5" d="M1043.16 225.602L1046.23 227.139L1043.16 228.676L1043.16 225.602"/>
<path class="l5" d="M1044.7 244.045L1047.77 244.045L1047.77 247.119L1044.7 247.119L1044.7 244.045z"/>
<path class="l5" d="M1020.11 225.602L1023.18 225.602L1023.18 228.676L1020.11 228.676L1020.11 225.602z"/>
<path class="l5" d="M1044.7 207.158L1047.77 207.158L1047.77 210.232L1044.7 210.232L1044.7 207.158z"/>
<path class="l5" d="M1046.19 227.091L1046.28 227.091L1046.28 227.187L1046.19 227.187L1046.19 227.091z"/>
<path class="l5" d="M382.275 471.513L385.349 473.05L382.275 474.587L382.275 471.513"/>
<path class="l5" d="M380.738 453.069L383.812 453.069L383.812 456.143L380.738 456.143L380.738 453.069z"/>
<path class="l5" d="M405.329 471.513L408.403 471.513L408.403 474.587L405.329 474.587L405.329 471.513z"/>
<path class="l5" d="M380.738 489.956L383.812 489.956L383.812 493.03L380.738 493.03L380.738 489.956z"/>
<path class="l5" d="M382.227 473.002L382.323 473.002L382.323 473.098L382.227 473.098L382.227 473.002z"/>
<path class="l5" d="M800.324 471.513L797.25 473.05L800.324 474.587L800.324 471.513"/>
<path class="l5" d="M798.787 453.069L801.861 453.069L801.861 456.143L798.787 456.143L798.787 453.069z"/>
<path class="l5" d="M774.196 471.513L777.27 471.513L777.27 474.587L774.196 474.587L774.196 471.513z"/>
<path class="l5" d="M798.787 489.956L801.861 489.956L801.861 493.03L798.787 493.03L798.787 489.956z"/>
<path class="l5" d="M800.276 473.002L800.372 473.002L800.372 473.098L800.276 473.098L800.276 473.002z"/>
<path class="l5" d="M552.876 551.434L555.95 551.434L555.95 554L552.876 554L552.876 551.434z"/>
<path class="l5" d="M1044.7 551.434L1047.77 551.434L1047.77 554L1044.7 554L1044.7 551.434z"/>
<path class="l5" d="M701.959 336.262L698.885 337.799L701.959 339.335L701.959 336.262"/>
<path class="l5" d="M700.422 317.818L703.496 317.818L703.496 320.892L700.422 320.892L700.422 317.818z"/>
<path class="l5" d="M675.831 336.262L678.905 336.262L678.905 339.335L675.831 339.335L675.831 336.262z"/>
<path class="l5" d="M700.422 354.705L703.496 354.705L703.496 357.779L700.422 357.779L700.422 354.705z"/>
<path class="l5" d="M701.911 337.751L702.007 337.751L702.007 337.847L701.911 337.847L701.911 337.751z"/>
<path class="l5" d="M898.688 336.262L901.762 337.799L898.688 339.335L898.688 336.262"/>
<path class="l5" d="M897.151 317.818L900.225 317.818L900.225 320.892L897.151 320.892L897.151 317.818z"/>
<path class="l5" d="M921.742 336.262L924.816 336.262L924.816 339.335L921.742 339.335L921.742 336.262z"/>
<path class="l5" d="M897.151 354.705L900.225 354.705L900.225 357.779L897.151 357.779L897.151 354.705z"/>
<path class="l5" d="M898.64 337.751L898.736 337.751L898.736 337.847L898.64 337.847L898.64 337.751z"/>
<path class="l5" d="M762.669 337.03L764.206 337.03L764.206 338.567L762.669 338.567L762.669 337.03z"/>
<path class="l5" d="M836.442 337.03L837.979 337.03L837.979 338.567L836.442 338.567L836.442 337.03z"/>
<text fill="#00ccee"  xml:space="preserve" font-size="10.5496" transform="translate(804.139, 135.018) rotate(270)" >VDD</text>
<text fill="#00ccee"  xml:space="preserve" font-size="10.5496" transform="translate(1095.32, 403.092)" >VOTA</text>
<text fill="#00ccee"  xml:space="preserve" font-size="10.5496" transform="translate(613.578, 341.041)" >VREF</text>
<text fill="#00ccee"  xml:space="preserve" font-size="10.5496" transform="translate(386.09, 387.077) rotate(270)" >IBIAS</text>
<text fill="#00ccee"  xml:space="preserve" font-size="10.5496" transform="translate(960.07, 341.614)" >VFB</text>
<text fill="#ff0000"  xml:space="preserve" font-size="4.79527" transform="translate(703.496, 242.251)" >D</text>
<text fill="#ff0000"  xml:space="preserve" font-size="4.79527" transform="translate(703.496, 215.234)" >S</text>
<text fill="#ff0000"  xml:space="preserve" font-size="4.79527" transform="translate(701.959, 225.345)" >B</text>
<text fill="#ff0000"  xml:space="preserve" font-size="4.79527" transform="translate(677.979, 223.808)" >G</text>
<text fill="#cccccc"  xml:space="preserve" font-size="6.39369" transform="translate(708.107, 220.231)" >pfet_05v0</text>
<text fill="#aaaa00"  xml:space="preserve" font-size="6.39369" transform="translate(708.876, 241.397)" >1 x 11.00u / 1.00u</text>
<text fill="#aaaa00"  xml:space="preserve" font-size="6.39369" transform="translate(708.876, 233.713)" >nf=1</text>
<text fill="#cccccc"  xml:space="preserve" font-size="6.39369" transform="translate(678.738, 214.501)" >XM3</text>
<text fill="#ff0000"  xml:space="preserve" font-size="4.79527" transform="translate(893.151, 242.251)" >D</text>
<text fill="#ff0000"  xml:space="preserve" font-size="4.79527" transform="translate(894.151, 215.234)" >S</text>
<text fill="#ff0000"  xml:space="preserve" font-size="4.79527" transform="translate(895.688, 225.345)" >B</text>
<text fill="#ff0000"  xml:space="preserve" font-size="4.79527" transform="translate(918.668, 223.808)" >G</text>
<text fill="#cccccc"  xml:space="preserve" font-size="6.39369" transform="translate(860.54, 220.231)" >pfet_05v0</text>
<text fill="#aaaa00"  xml:space="preserve" font-size="6.39369" transform="translate(833.772, 241.397)" >1 x 11.00u / 1.00u</text>
<text fill="#aaaa00"  xml:space="preserve" font-size="6.39369" transform="translate(876.772, 233.713)" >nf=1</text>
<text fill="#cccccc"  xml:space="preserve" font-size="6.39369" transform="translate(907.91, 214.501)" >XM4</text>
<text fill="#ff0000"  xml:space="preserve" font-size="4.79527" transform="translate(548.876, 242.251)" >D</text>
<text fill="#ff0000"  xml:space="preserve" font-size="4.79527" transform="translate(549.876, 215.234)" >S</text>
<text fill="#ff0000"  xml:space="preserve" font-size="4.79527" transform="translate(551.413, 225.345)" >B</text>
<text fill="#ff0000"  xml:space="preserve" font-size="4.79527" transform="translate(574.393, 223.808)" >G</text>
<text fill="#cccccc"  xml:space="preserve" font-size="6.39369" transform="translate(516.265, 220.231)" >pfet_05v0</text>
<text fill="#aaaa00"  xml:space="preserve" font-size="6.39369" transform="translate(489.496, 241.397)" >1 x 11.00u / 1.00u</text>
<text fill="#aaaa00"  xml:space="preserve" font-size="6.39369" transform="translate(532.496, 233.713)" >nf=1</text>
<text fill="#cccccc"  xml:space="preserve" font-size="6.39369" transform="translate(563.634, 214.501)" >XM5</text>
<text fill="#ff0000"  xml:space="preserve" font-size="4.79527" transform="translate(1047.77, 242.251)" >D</text>
<text fill="#ff0000"  xml:space="preserve" font-size="4.79527" transform="translate(1047.77, 215.234)" >S</text>
<text fill="#ff0000"  xml:space="preserve" font-size="4.79527" transform="translate(1046.23, 225.345)" >B</text>
<text fill="#ff0000"  xml:space="preserve" font-size="4.79527" transform="translate(1022.25, 223.808)" >G</text>
<text fill="#cccccc"  xml:space="preserve" font-size="6.39369" transform="translate(1052.38, 220.231)" >pfet_05v0</text>
<text fill="#aaaa00"  xml:space="preserve" font-size="6.39369" transform="translate(1053.15, 241.397)" >3 x 11.00u / 1.00u</text>
<text fill="#aaaa00"  xml:space="preserve" font-size="6.39369" transform="translate(1053.15, 233.713)" >nf=1</text>
<text fill="#cccccc"  xml:space="preserve" font-size="6.39369" transform="translate(1023.01, 214.501)" >XM6</text>
<text fill="#ff0000"  xml:space="preserve" font-size="4.79527" transform="translate(377.738, 488.162)" >S</text>
<text fill="#ff0000"  xml:space="preserve" font-size="4.79527" transform="translate(376.738, 461.145)" >D</text>
<text fill="#ff0000"  xml:space="preserve" font-size="4.79527" transform="translate(379.275, 471.256)" >B</text>
<text fill="#ff0000"  xml:space="preserve" font-size="4.79527" transform="translate(400.718, 471.256)" >G</text>
<text fill="#cccccc"  xml:space="preserve" font-size="6.39369" transform="translate(344.127, 466.142)" >nfet_05v0</text>
<text fill="#aaaa00"  xml:space="preserve" font-size="6.39369" transform="translate(321.359, 487.308)" >1 x 6.00u / 1.00u</text>
<text fill="#aaaa00"  xml:space="preserve" font-size="6.39369" transform="translate(360.359, 479.624)" >nf=1</text>
<text fill="#cccccc"  xml:space="preserve" font-size="6.39369" transform="translate(391.497, 460.412)" >XM9</text>
<text fill="#ff0000"  xml:space="preserve" font-size="4.79527" transform="translate(801.861, 488.162)" >S</text>
<text fill="#ff0000"  xml:space="preserve" font-size="4.79527" transform="translate(801.861, 461.145)" >D</text>
<text fill="#ff0000"  xml:space="preserve" font-size="4.79527" transform="translate(800.324, 471.256)" >B</text>
<text fill="#ff0000"  xml:space="preserve" font-size="4.79527" transform="translate(777.88, 471.256)" >G</text>
<text fill="#cccccc"  xml:space="preserve" font-size="6.39369" transform="translate(806.471, 466.142)" >nfet_05v0</text>
<text fill="#aaaa00"  xml:space="preserve" font-size="6.39369" transform="translate(807.24, 487.308)" >1 x 6.00u / 1.00u</text>
<text fill="#aaaa00"  xml:space="preserve" font-size="6.39369" transform="translate(807.24, 479.624)" >nf=1</text>
<text fill="#cccccc"  xml:space="preserve" font-size="6.39369" transform="translate(773.102, 460.412)" >XM10</text>
<text fill="#cccccc"  xml:space="preserve" font-size="6.39369" transform="translate(563.634, 558.776)" >XM7</text>
<text fill="#cccccc"  xml:space="preserve" font-size="6.39369" transform="translate(1023.01, 558.776)" >XM8</text>
<text fill="#ff0000"  xml:space="preserve" font-size="4.79527" transform="translate(703.496, 352.911)" >S</text>
<text fill="#ff0000"  xml:space="preserve" font-size="4.79527" transform="translate(703.496, 325.894)" >D</text>
<text fill="#ff0000"  xml:space="preserve" font-size="4.79527" transform="translate(701.959, 336.005)" >B</text>
<text fill="#ff0000"  xml:space="preserve" font-size="4.79527" transform="translate(679.516, 336.005)" >G</text>
<text fill="#cccccc"  xml:space="preserve" font-size="6.39369" transform="translate(708.107, 330.891)" >nfet_05v0</text>
<text fill="#aaaa00"  xml:space="preserve" font-size="6.39369" transform="translate(708.876, 352.057)" >1 x 70.00u / 0.60u</text>
<text fill="#aaaa00"  xml:space="preserve" font-size="6.39369" transform="translate(708.876, 344.372)" >nf=1</text>
<text fill="#cccccc"  xml:space="preserve" font-size="6.39369" transform="translate(678.738, 325.161)" >XM1</text>
<text fill="#ff0000"  xml:space="preserve" font-size="4.79527" transform="translate(894.151, 352.911)" >S</text>
<text fill="#ff0000"  xml:space="preserve" font-size="4.79527" transform="translate(893.151, 325.894)" >D</text>
<text fill="#ff0000"  xml:space="preserve" font-size="4.79527" transform="translate(895.688, 336.005)" >B</text>
<text fill="#ff0000"  xml:space="preserve" font-size="4.79527" transform="translate(917.131, 336.005)" >G</text>
<text fill="#cccccc"  xml:space="preserve" font-size="6.39369" transform="translate(860.54, 330.891)" >nfet_05v0</text>
<text fill="#aaaa00"  xml:space="preserve" font-size="6.39369" transform="translate(833.772, 352.057)" >1 x 70.00u / 0.60u</text>
<text fill="#aaaa00"  xml:space="preserve" font-size="6.39369" transform="translate(876.772, 344.372)" >nf=1</text>
<text fill="#cccccc"  xml:space="preserve" font-size="6.39369" transform="translate(907.91, 325.161)" >XM2</text>
<text fill="#00ccee"  xml:space="preserve" font-size="8.63148" transform="translate(745.9, 334.967)" >VSS</text>
<text fill="#00ccee"  xml:space="preserve" font-size="8.63148" transform="translate(838.747, 334.967)" >VSS</text>
<path class="l1" d="M369.979 473.05L382.275 473.05"/>
<path class="l1" d="M369.979 473.05L369.979 503.789"/>
<path class="l1" d="M369.979 503.789L382.275 503.789"/>
<path class="l1" d="M800.324 473.05L812.619 473.05"/>
<path class="l1" d="M812.619 473.05L812.619 503.789"/>
<path class="l1" d="M800.324 503.789L812.619 503.789"/>
<path class="l1" d="M701.959 356.242L701.959 393.129"/>
<path class="l1" d="M701.959 393.129L800.324 393.129"/>
<path class="l1" d="M701.959 337.799L714.255 337.799"/>
<path class="l1" d="M652.777 337.799L677.368 337.799"/>
<path class="l1" d="M898.688 356.242L898.688 393.129"/>
<path class="l1" d="M800.324 393.129L898.688 393.129"/>
<path class="l1" d="M886.393 337.799L898.688 337.799"/>
<path class="l1" d="M923.279 337.799L947.87 337.799"/>
<path class="l1" d="M701.959 245.582L701.959 319.355"/>
<path class="l1" d="M898.688 245.582L898.688 319.355"/>
<path class="l1" d="M701.959 171.809L701.959 208.695"/>
<path class="l1" d="M898.688 171.809L898.688 208.695"/>
<path class="l1" d="M800.324 147.217L800.324 171.809"/>
<path class="l1" d="M800.324 393.129L800.324 454.606"/>
<path class="l1" d="M1046.23 399.276L1083.12 399.276"/>
<path class="l1" d="M701.959 227.139L714.255 227.139"/>
<path class="l1" d="M714.255 196.4L714.255 227.139"/>
<path class="l1" d="M701.959 196.4L714.255 196.4"/>
<path class="l1" d="M886.393 227.139L898.688 227.139"/>
<path class="l1" d="M886.393 196.4L886.393 227.139"/>
<path class="l1" d="M886.393 196.4L898.688 196.4"/>
<path class="l1" d="M554.413 534.527L554.413 552"/>
<path class="l1" d="M554.413 245.582L554.413 534.527"/>
<path class="l1" d="M579.004 227.139L677.368 227.139"/>
<path class="l1" d="M1046.23 245.582L1046.23 552"/>
<path class="l1" d="M923.279 227.139L1021.64 227.139"/>
<path class="l1" d="M1046.23 171.809L1046.23 208.695"/>
<path class="l1" d="M800.324 491.493L800.324 552"/>
<path class="l1" d="M640.482 276.321L701.959 276.321"/>
<path class="l1" d="M640.482 227.139L640.482 276.321"/>
<path class="l1" d="M615.89 522.232L615.89 552"/>
<path class="l1" d="M554.413 522.232L615.89 522.232"/>
<path class="l1" d="M898.688 276.321L960.166 276.321"/>
<path class="l1" d="M960.166 227.139L960.166 276.321"/>
<path class="l1" d="M554.413 171.809L554.413 208.695"/>
<path class="l1" d="M554.413 171.809L1046.23 171.809"/>
<path class="l1" d="M1046.23 227.139L1058.53 227.139"/>
<path class="l1" d="M1058.53 196.4L1058.53 227.139"/>
<path class="l1" d="M1046.23 196.4L1058.53 196.4"/>
<path class="l1" d="M542.117 227.139L554.413 227.139"/>
<path class="l1" d="M542.117 196.4L542.117 227.139"/>
<path class="l1" d="M542.117 196.4L554.413 196.4"/>
<path class="l1" d="M406.866 473.05L775.733 473.05"/>
<path class="l1" d="M382.275 491.493L382.275 552"/>
<path class="l1" d="M443.753 423.867L443.753 473.05"/>
<path class="l1" d="M382.275 423.867L443.753 423.867"/>
<path class="l1" d="M382.275 399.276L382.275 454.606"/>
<path class="l1" d="M714.255 337.799L763.437 337.799"/>
<path class="l1" d="M837.21 337.799L886.393 337.799"/>
<circle class="l1" cx="382.275" cy="423.867" r="2.27468"/>
<circle class="l1" cx="443.753" cy="473.05" r="2.27468"/>
<circle class="l1" cx="382.275" cy="503.789" r="2.27468"/>
<circle class="l1" cx="554.413" cy="196.4" r="2.27468"/>
<circle class="l1" cx="640.482" cy="227.139" r="2.27468"/>
<circle class="l1" cx="701.959" cy="276.321" r="2.27468"/>
<circle class="l1" cx="701.959" cy="196.4" r="2.27468"/>
<circle class="l1" cx="701.959" cy="171.809" r="2.27468"/>
<circle class="l1" cx="554.413" cy="522.232" r="2.27468"/>
<circle class="l1" cx="800.324" cy="393.129" r="2.27468"/>
<circle class="l1" cx="898.688" cy="276.321" r="2.27468"/>
<circle class="l1" cx="898.688" cy="196.4" r="2.27468"/>
<circle class="l1" cx="800.324" cy="171.809" r="2.27468"/>
<circle class="l1" cx="898.688" cy="171.809" r="2.27468"/>
<circle class="l1" cx="800.324" cy="393.129" r="2.27468"/>
<circle class="l1" cx="800.324" cy="393.129" r="2.27468"/>
<circle class="l1" cx="800.324" cy="503.789" r="2.27468"/>
<circle class="l1" cx="1046.23" cy="196.4" r="2.27468"/>
<circle class="l1" cx="960.166" cy="227.139" r="2.27468"/>
<circle class="l1" cx="1046.23" cy="399.276" r="2.27468"/>
<text fill="#cccccc"  xml:space="preserve" font-size="12.7874" transform="translate(363.832, 306.375)" >10 uA</text>
<text fill="#cccccc"  xml:space="preserve" font-size="12.7874" transform="translate(542.117, 109.646)" >5 uA</text>
<text fill="#cccccc"  xml:space="preserve" font-size="12.7874" transform="translate(689.664, 109.646)" >5 uA</text>
<text fill="#cccccc"  xml:space="preserve" font-size="12.7874" transform="translate(886.393, 109.646)" >5 uA</text>
<text fill="#cccccc"  xml:space="preserve" font-size="12.7874" transform="translate(1027.79, 109.646)" >15 uA</text>
<text fill="#cccccc"  xml:space="preserve" font-size="6.39369" transform="translate(388.423, 171.466)" >Matching (interdigitated)</text>
<text fill="#cccccc"  xml:space="preserve" font-size="6.39369" transform="translate(572.856, 319.013)" >Matching (common centroid)</text>
<text fill="#cccccc"  xml:space="preserve" font-size="6.39369" transform="translate(1126.16, 521.89)" >Matching (interdigitated)</text>
<text fill="#cccccc"  xml:space="preserve" font-size="6.39369" transform="translate(222.433, 423.525)" >Matching (interdigitated)</text>
</svg>
