<svg xmlns="http://www.w3.org/2000/svg" xmlns:xlink="http://www.w3.org/1999/xlink" width="1366" height="552" version="1.1">
<style type="text/css">
.l0{
  fill: #000000;
  stroke: #000000;
  stroke-linecap:round;
  stroke-linejoin:round;
  stroke-width: 0.400246;
}
.l1{
  fill: #00ccee;
  stroke: #00ccee;
  stroke-linecap:round;
  stroke-linejoin:round;
  stroke-width: 0.400246;
}
.l2{
  fill: #4f4f4f; fill-opacity: 0.2;
  stroke: #4f4f4f;
  stroke-linecap:round;
  stroke-linejoin:round;
  stroke-width: 0.400246;
}
.l3{
  fill: #cccccc; fill-opacity: 0.5;
  stroke: #cccccc;
  stroke-linecap:round;
  stroke-linejoin:round;
  stroke-width: 0.400246;
}
.l4{
  fill: #88dd00;
  stroke: #88dd00;
  stroke-linecap:round;
  stroke-linejoin:round;
  stroke-width: 0.400246;
}
.l5{
  fill: #bb2200;
  stroke: #bb2200;
  stroke-linecap:round;
  stroke-linejoin:round;
  stroke-width: 0.400246;
}
.l6{
  fill: #00ccee; fill-opacity: 0.5;
  stroke: #00ccee;
  stroke-linecap:round;
  stroke-linejoin:round;
  stroke-width: 0.400246;
}
.l7{
  fill: #ff0000; fill-opacity: 0.5;
  stroke: #ff0000;
  stroke-linecap:round;
  stroke-linejoin:round;
  stroke-width: 0.400246;
}
.l8{
  fill: #ffff00; fill-opacity: 0.5;
  stroke: #ffff00;
  stroke-linecap:round;
  stroke-linejoin:round;
  stroke-width: 0.400246;
}
.l9{
  fill: #ffffff; fill-opacity: 0.5;
  stroke: #ffffff;
  stroke-linecap:round;
  stroke-linejoin:round;
  stroke-width: 0.400246;
}
.l10{
  fill: #ff00ff;
  stroke: #ff00ff;
  stroke-linecap:round;
  stroke-linejoin:round;
  stroke-width: 0.400246;
}
.l11{
  fill: #00ff00; fill-opacity: 0.5;
  stroke: #00ff00;
  stroke-linecap:round;
  stroke-linejoin:round;
  stroke-width: 0.400246;
}
.l12{
  fill: #0044ff; fill-opacity: 0.5;
  stroke: #0044ff;
  stroke-linecap:round;
  stroke-linejoin:round;
  stroke-width: 0.400246;
}
.l13{
  fill: #aaaa00; fill-opacity: 0.5;
  stroke: #aaaa00;
  stroke-linecap:round;
  stroke-linejoin:round;
  stroke-width: 0.400246;
}
.l14{
  fill: #aaccaa; fill-opacity: 0.2;
  stroke: #aaccaa;
  stroke-linecap:round;
  stroke-linejoin:round;
  stroke-width: 0.400246;
}
.l15{
  fill: #ff7777; fill-opacity: 0.5;
  stroke: #ff7777;
  stroke-linecap:round;
  stroke-linejoin:round;
  stroke-width: 0.400246;
}
.l16{
  fill: #bfff81; fill-opacity: 0.5;
  stroke: #bfff81;
  stroke-linecap:round;
  stroke-linejoin:round;
  stroke-width: 0.400246;
}
.l17{
  fill: #00ffcc; fill-opacity: 0.2;
  stroke: #00ffcc;
  stroke-linecap:round;
  stroke-linejoin:round;
  stroke-width: 0.400246;
}
.l18{
  fill: #ce0097; fill-opacity: 0.5;
  stroke: #ce0097;
  stroke-linecap:round;
  stroke-linejoin:round;
  stroke-width: 0.400246;
}
.l19{
  fill: #d2d46b; fill-opacity: 0.2;
  stroke: #d2d46b;
  stroke-linecap:round;
  stroke-linejoin:round;
  stroke-width: 0.400246;
}
.l20{
  fill: #ef6158; fill-opacity: 0.2;
  stroke: #ef6158;
  stroke-linecap:round;
  stroke-linejoin:round;
  stroke-width: 0.400246;
}
.l21{
  fill: #fdb200; fill-opacity: 0.2;
  stroke: #fdb200;
  stroke-linecap:round;
  stroke-linejoin:round;
  stroke-width: 0.400246;
}
text {font-family: Sans-Serif;}
</style>
<rect class="l0" x="0" y="0" width="1366" height="552"/>
<path class="l4" d="M428.897 489.889L1055.95 489.889"/>
<path class="l4" d="M314.753 489.889L334.024 489.889"/>
<path class="l4" d="M1055.95 0L1055.95 489.889"/>
<path class="l4" d="M314.753 0L314.753 489.889"/>
<path class="l4" d="M664.597 442.452L664.597 489.889"/>
<path class="l4" d="M664.597 442.452L1055.95 442.452"/>
<path class="l4" d="M664.597 466.171L1055.95 466.171"/>
<path class="l4" d="M851.379 466.171L851.379 489.889"/>
<path class="l4" d="M851.379 442.452L851.379 466.171"/>
<path class="l4" d="M765.4 466.171L765.4 489.889"/>
<path class="l4" d="M660.891 127.444L660.891 140.786"/>
<path class="l4" d="M664.597 125.22L664.597 128.926"/>
<path class="l4" d="M664.597 139.303L664.597 143.009"/>
<path class="l4" d="M657.927 129.668L657.927 138.562"/>
<path class="l4" d="M660.891 139.303L664.597 139.303"/>
<path class="l4" d="M662.374 128.926L664.597 128.926"/>
<path class="l4" d="M652.738 134.115L654.962 134.115"/>
<path class="l4" d="M662.374 128.185L660.891 128.926L662.374 129.668L662.374 128.185"/>
<circle class="l4" cx="656.444" cy="134.115" r="1.48239" style="fill:none;" />
<path class="l4" d="M763.177 127.444L763.177 140.786"/>
<path class="l4" d="M759.471 125.22L759.471 128.926"/>
<path class="l4" d="M759.471 139.303L759.471 143.009"/>
<path class="l4" d="M766.141 129.668L766.141 138.562"/>
<path class="l4" d="M759.471 139.303L763.177 139.303"/>
<path class="l4" d="M759.471 128.926L761.694 128.926"/>
<path class="l4" d="M769.106 134.115L771.33 134.115"/>
<path class="l4" d="M761.694 128.185L763.177 128.926L761.694 129.668L761.694 128.185"/>
<circle class="l4" cx="767.624" cy="134.115" r="1.48239" style="fill:none;" />
<path class="l4" d="M597.149 127.444L597.149 140.786"/>
<path class="l4" d="M593.443 125.22L593.443 128.926"/>
<path class="l4" d="M593.443 139.303L593.443 143.009"/>
<path class="l4" d="M600.113 129.668L600.113 138.562"/>
<path class="l4" d="M593.443 139.303L597.149 139.303"/>
<path class="l4" d="M593.443 128.926L595.666 128.926"/>
<path class="l4" d="M603.078 134.115L605.302 134.115"/>
<path class="l4" d="M595.666 128.185L597.149 128.926L595.666 129.668L595.666 128.185"/>
<circle class="l4" cx="601.596" cy="134.115" r="1.48239" style="fill:none;" />
<path class="l4" d="M826.919 127.444L826.919 140.786"/>
<path class="l4" d="M830.625 125.22L830.625 128.926"/>
<path class="l4" d="M830.625 139.303L830.625 143.009"/>
<path class="l4" d="M823.955 129.668L823.955 138.562"/>
<path class="l4" d="M826.919 139.303L830.625 139.303"/>
<path class="l4" d="M828.402 128.926L830.625 128.926"/>
<path class="l4" d="M818.766 134.115L820.99 134.115"/>
<path class="l4" d="M828.402 128.185L826.919 128.926L828.402 129.668L828.402 128.185"/>
<circle class="l4" cx="822.472" cy="134.115" r="1.48239" style="fill:none;" />
<path class="l4" d="M514.135 246.035L514.135 259.377"/>
<path class="l4" d="M517.099 252.706L522.288 252.706"/>
<path class="l4" d="M510.429 243.812L510.429 247.518"/>
<path class="l4" d="M510.429 257.895L510.429 261.601"/>
<path class="l4" d="M517.099 248.259L517.099 257.153"/>
<path class="l4" d="M510.429 247.518L514.135 247.518"/>
<path class="l4" d="M511.911 257.895L514.135 257.895"/>
<path class="l4" d="M511.911 257.153L510.429 257.895L511.911 258.636L511.911 257.153"/>
<path class="l4" d="M708.328 246.035L708.328 259.377"/>
<path class="l4" d="M700.175 252.706L705.363 252.706"/>
<path class="l4" d="M712.034 243.812L712.034 247.518"/>
<path class="l4" d="M712.034 257.895L712.034 261.601"/>
<path class="l4" d="M705.363 248.259L705.363 257.153"/>
<path class="l4" d="M708.328 247.518L712.034 247.518"/>
<path class="l4" d="M708.328 257.895L710.552 257.895"/>
<path class="l4" d="M710.552 257.153L712.034 257.895L710.552 258.636L710.552 257.153"/>
<path class="l4" d="M597.149 293.472L597.149 306.813"/>
<path class="l4" d="M600.113 300.143L605.302 300.143"/>
<path class="l4" d="M593.443 291.248L593.443 294.954"/>
<path class="l4" d="M593.443 305.331L593.443 309.037"/>
<path class="l4" d="M600.113 295.696L600.113 304.59"/>
<path class="l4" d="M593.443 294.954L597.149 294.954"/>
<path class="l4" d="M594.925 305.331L597.149 305.331"/>
<path class="l4" d="M594.925 304.59L593.443 305.331L594.925 306.072L594.925 304.59"/>
<path class="l4" d="M826.919 293.472L826.919 306.813"/>
<path class="l4" d="M818.766 300.143L823.955 300.143"/>
<path class="l4" d="M830.625 291.248L830.625 294.954"/>
<path class="l4" d="M830.625 305.331L830.625 309.037"/>
<path class="l4" d="M823.955 295.696L823.955 304.59"/>
<path class="l4" d="M826.919 294.954L830.625 294.954"/>
<path class="l4" d="M826.919 305.331L829.143 305.331"/>
<path class="l4" d="M829.143 304.59L830.625 305.331L829.143 306.072L829.143 304.59"/>
<path class="l4" d="M660.891 180.81L660.891 194.152"/>
<path class="l4" d="M652.738 187.481L657.927 187.481"/>
<path class="l4" d="M664.597 178.587L664.597 182.293"/>
<path class="l4" d="M664.597 192.669L664.597 196.375"/>
<path class="l4" d="M657.927 183.034L657.927 191.928"/>
<path class="l4" d="M660.891 182.293L664.597 182.293"/>
<path class="l4" d="M660.891 192.669L663.115 192.669"/>
<path class="l4" d="M663.115 191.928L664.597 192.669L663.115 193.41L663.115 191.928"/>
<path class="l4" d="M763.177 180.81L763.177 194.152"/>
<path class="l4" d="M766.141 187.481L771.33 187.481"/>
<path class="l4" d="M759.471 178.587L759.471 182.293"/>
<path class="l4" d="M759.471 192.669L759.471 196.375"/>
<path class="l4" d="M766.141 183.034L766.141 191.928"/>
<path class="l4" d="M759.471 182.293L763.177 182.293"/>
<path class="l4" d="M760.953 192.669L763.177 192.669"/>
<path class="l4" d="M760.953 191.928L759.471 192.669L760.953 193.41L760.953 191.928"/>
<path class="l5" d="M712.034 94.6461L712.034 95.5726"/>
<path class="l5" d="M713.516 91.496L712.034 90.3842L710.552 91.496L710.552 93.5343L712.034 94.6461L713.516 93.5343L713.516 91.496"/>
<path class="l5" d="M711.663 95.202L712.405 95.202L712.405 95.9432L711.663 95.9432L711.663 95.202z"/>
<path class="l5" d="M661.633 338.685L661.633 339.611"/>
<path class="l5" d="M660.15 342.761L661.633 343.873L663.115 342.761L663.115 340.723L661.633 339.611L660.15 340.723L660.15 342.761"/>
<path class="l5" d="M661.262 338.314L662.003 338.314L662.003 339.055L661.262 339.055L661.262 338.314z"/>
<path class="l5" d="M848.414 217.129L849.341 217.129"/>
<path class="l5" d="M852.491 218.611L853.602 217.129L852.491 215.646L850.452 215.646L849.341 217.129L850.452 218.611L852.491 218.611"/>
<path class="l5" d="M848.043 216.758L848.785 216.758L848.785 217.499L848.043 217.499L848.043 216.758z"/>
<path class="l5" d="M639.953 187.481L640.879 187.481"/>
<path class="l5" d="M636.803 185.999L635.691 187.481L636.803 188.963L638.841 188.963L639.953 187.481L638.841 185.999L636.803 185.999"/>
<path class="l5" d="M640.509 187.11L641.25 187.11L641.25 187.852L640.509 187.852L640.509 187.11z"/>
<path class="l5" d="M510.429 216.202L510.429 217.129"/>
<path class="l5" d="M511.911 213.052L510.429 211.94L508.946 213.052L508.946 215.09L510.429 216.202L511.911 215.09L511.911 213.052"/>
<path class="l5" d="M510.058 216.758L510.799 216.758L510.799 217.499L510.058 217.499L510.058 216.758z"/>
<path class="l5" d="M783.189 187.481L784.115 187.481"/>
<path class="l5" d="M787.265 188.963L788.377 187.481L787.265 185.999L785.227 185.999L784.115 187.481L785.227 188.963L787.265 188.963"/>
<path class="l5" d="M782.818 187.11L783.559 187.11L783.559 187.852L782.818 187.852L782.818 187.11z"/>
<path class="l5" d="M356.26 485.442L356.167 485.534L356.075 485.627L355.982 485.72L355.889 485.812L355.797 485.905L355.704 485.998L355.611 486.09L355.519 486.183L355.426 486.276L355.333 486.368L355.241 486.461L355.148 486.553L355.055 486.646L354.963 486.739L354.87 486.831L354.778 486.924L354.685 487.017L354.592 487.109L354.5 487.202L354.407 487.295L354.314 487.387L354.222 487.48L354.129 487.573L354.036 487.665L353.944 487.758L353.851 487.851L353.758 487.943L353.666 488.036L353.573 488.129L353.48 488.221L353.388 488.314L353.295 488.406L353.295 488.406L353.205 488.499L353.121 488.592L353.043 488.684L352.971 488.777L352.904 488.87L352.843 488.962L352.788 489.055L352.739 489.148L352.696 489.24L352.658 489.333L352.626 489.426L352.6 489.518L352.58 489.611L352.565 489.704L352.557 489.796L352.554 489.889L352.557 489.982L352.565 490.074L352.58 490.167L352.6 490.259L352.626 490.352L352.658 490.445L352.696 490.537L352.739 490.63L352.788 490.723L352.843 490.815L352.904 490.908L352.971 491.001L353.043 491.093L353.121 491.186L353.205 491.279L353.295 491.371L353.295 491.371L353.388 491.464L353.482 491.558L353.576 491.652L353.671 491.748L353.767 491.844L353.864 491.94L353.961 492.038L354.059 492.136L354.158 492.234L354.258 492.334L354.358 492.434L354.459 492.535L354.561 492.637L354.663 492.739L354.766 492.842L354.87 492.946L354.975 493.051L355.08 493.156L355.186 493.262L355.293 493.369L355.4 493.477L355.509 493.585L355.618 493.694L355.727 493.803L355.838 493.914L355.949 494.025L356.06 494.137L356.173 494.249L356.286 494.362L356.4 494.476L356.515 494.591L356.63 494.707L356.63 494.707L356.746 494.822L356.859 494.935L356.971 495.048L357.082 495.158L357.191 495.268L357.299 495.375L357.406 495.482L357.511 495.587L357.614 495.69L357.716 495.792L357.817 495.893L357.916 495.992L358.014 496.09L358.11 496.186L358.205 496.281L358.298 496.374L358.39 496.466L358.481 496.557L358.57 496.646L358.657 496.733L358.743 496.819L358.828 496.904L358.911 496.987L358.993 497.069L359.073 497.15L359.152 497.228L359.23 497.306L359.306 497.382L359.38 497.456L359.453 497.53L359.525 497.601L359.595 497.671L359.595 497.671L359.663 497.74L359.726 497.806L359.784 497.87L359.838 497.932L359.888 497.992L359.934 498.049L359.975 498.105L360.012 498.158L360.045 498.209L360.073 498.258L360.097 498.304L360.116 498.349L360.132 498.391L360.142 498.431L360.149 498.469L360.151 498.505L360.149 498.539L360.142 498.57L360.132 498.6L360.116 498.627L360.097 498.652L360.073 498.675L360.045 498.695L360.012 498.714L359.975 498.73L359.934 498.744L359.888 498.756L359.838 498.766L359.784 498.773L359.726 498.779L359.663 498.782L359.595 498.783L359.595 498.783L359.526 498.783L359.456 498.783L359.387 498.783L359.317 498.783L359.248 498.783L359.178 498.783L359.109 498.783L359.039 498.783L358.97 498.783L358.9 498.783L358.831 498.783L358.761 498.783L358.692 498.783L358.622 498.783L358.553 498.783L358.483 498.783L358.414 498.783L358.345 498.783L358.275 498.783L358.206 498.783L358.136 498.783L358.067 498.783L357.997 498.783L357.928 498.783L357.858 498.783L357.789 498.783L357.719 498.783L357.65 498.783L357.58 498.783L357.511 498.783L357.441 498.783L357.372 498.783L357.372 498.783L357.303 498.783L357.234 498.783L357.166 498.783L357.1 498.783L357.033 498.783L356.968 498.783L356.903 498.783L356.839 498.783L356.776 498.783L356.713 498.783L356.651 498.783L356.59 498.783L356.53 498.783L356.47 498.783L356.411 498.783L356.353 498.783L356.295 498.783L356.238 498.783L356.182 498.783L356.127 498.783L356.072 498.783L356.018 498.783L355.965 498.783L355.912 498.783L355.861 498.783L355.81 498.783L355.759 498.783L355.71 498.783L355.661 498.783L355.613 498.783L355.565 498.783L355.519 498.783L355.519 498.783L355.472 498.783L355.426 498.78L355.38 498.777L355.333 498.772L355.287 498.765L355.241 498.757L355.194 498.748L355.148 498.737L355.102 498.725L355.055 498.711L355.009 498.696L354.963 498.679L354.916 498.661L354.87 498.641L354.824 498.62L354.778 498.598L354.731 498.574L354.685 498.549L354.639 498.522L354.592 498.494L354.546 498.464L354.5 498.433L354.453 498.4L354.407 498.366L354.361 498.331L354.314 498.294L354.268 498.256L354.222 498.216L354.175 498.174L354.129 498.132L354.083 498.088L354.036 498.042L354.036 498.042L353.99 497.996L353.944 497.949L353.897 497.903L353.851 497.857L353.805 497.81L353.758 497.764L353.712 497.718L353.666 497.671L353.619 497.625L353.573 497.579L353.527 497.532L353.48 497.486L353.434 497.44L353.388 497.393L353.341 497.347L353.295 497.301L353.249 497.255L353.202 497.208L353.156 497.162L353.11 497.116L353.063 497.069L353.017 497.023L352.971 496.977L352.925 496.93L352.878 496.884L352.832 496.838L352.786 496.791L352.739 496.745L352.693 496.699L352.647 496.652L352.6 496.606L352.554 496.56L352.554 496.56L352.507 496.513L352.458 496.464L352.408 496.414L352.357 496.363L352.304 496.31L352.25 496.256L352.194 496.2L352.137 496.143L352.078 496.084L352.018 496.024L351.957 495.962L351.894 495.9L351.829 495.835L351.763 495.769L351.696 495.702L351.627 495.633L351.557 495.563L351.486 495.491L351.412 495.418L351.338 495.344L351.262 495.268L351.184 495.19L351.106 495.111L351.025 495.031L350.943 494.949L350.86 494.866L350.775 494.781L350.689 494.695L350.602 494.607L350.513 494.518L350.422 494.428L350.33 494.336L350.33 494.336L350.238 494.246L350.145 494.162L350.052 494.084L349.96 494.012L349.867 493.945L349.774 493.884L349.682 493.829L349.589 493.78L349.496 493.737L349.404 493.699L349.311 493.667L349.219 493.641L349.126 493.621L349.033 493.606L348.941 493.598L348.848 493.595L348.755 493.598L348.663 493.606L348.57 493.621L348.477 493.641L348.385 493.667L348.292 493.699L348.199 493.737L348.107 493.78L348.014 493.829L347.921 493.884L347.829 493.945L347.736 494.012L347.643 494.084L347.551 494.162L347.458 494.246L347.366 494.336L347.366 494.336L347.274 494.428L347.183 494.518L347.094 494.607L347.007 494.695L346.92 494.781L346.836 494.866L346.752 494.949L346.671 495.031L346.59 495.111L346.511 495.19L346.434 495.268L346.358 495.344L346.283 495.418L346.21 495.491L346.139 495.563L346.068 495.633L346 495.702L345.932 495.769L345.867 495.835L345.802 495.9L345.739 495.962L345.678 496.024L345.618 496.084L345.559 496.143L345.502 496.2L345.446 496.256L345.392 496.31L345.339 496.363L345.287 496.414L345.237 496.464L345.189 496.513L345.142 496.56L345.142 496.56L345.096 496.606L345.049 496.652L345.003 496.699L344.957 496.745L344.91 496.791L344.864 496.838L344.818 496.884L344.771 496.93L344.725 496.977L344.679 497.023L344.632 497.069L344.586 497.116L344.54 497.162L344.493 497.208L344.447 497.255L344.401 497.301L344.354 497.347L344.308 497.393L344.262 497.44L344.215 497.486L344.169 497.532L344.123 497.579L344.076 497.625L344.03 497.671L343.984 497.718L343.938 497.764L343.891 497.81L343.845 497.857L343.799 497.903L343.752 497.949L343.706 497.996L343.66 498.042L343.66 498.042L343.613 498.088L343.567 498.132L343.521 498.174L343.474 498.216L343.428 498.256L343.382 498.294L343.335 498.331L343.289 498.366L343.243 498.4L343.196 498.433L343.15 498.464L343.104 498.494L343.057 498.522L343.011 498.549L342.965 498.574L342.918 498.598L342.872 498.62L342.826 498.641L342.779 498.661L342.733 498.679L342.687 498.696L342.64 498.711L342.594 498.725L342.548 498.737L342.501 498.748L342.455 498.757L342.409 498.765L342.362 498.772L342.316 498.777L342.27 498.78L342.223 498.783L342.177 498.783L342.177 498.783L342.13 498.783L342.083 498.783L342.035 498.783L341.986 498.783L341.936 498.783L341.886 498.783L341.835 498.783L341.783 498.783L341.731 498.783L341.678 498.783L341.624 498.783L341.569 498.783L341.514 498.783L341.458 498.783L341.401 498.783L341.343 498.783L341.285 498.783L341.226 498.783L341.166 498.783L341.106 498.783L341.045 498.783L340.983 498.783L340.92 498.783L340.857 498.783L340.793 498.783L340.728 498.783L340.663 498.783L340.596 498.783L340.529 498.783L340.462 498.783L340.393 498.783L340.324 498.783L340.324 498.783L340.255 498.783L340.185 498.783L340.116 498.783L340.046 498.783L339.977 498.783L339.907 498.783L339.838 498.783L339.768 498.783L339.699 498.783L339.629 498.783L339.56 498.783L339.49 498.783L339.421 498.783L339.351 498.783L339.282 498.783L339.212 498.783L339.143 498.783L339.073 498.783L339.004 498.783L338.934 498.783L338.865 498.783L338.795 498.783L338.726 498.783L338.656 498.783L338.587 498.783L338.518 498.783L338.448 498.783L338.379 498.783L338.309 498.783L338.24 498.783L338.17 498.783L338.101 498.783L338.101 498.783L338.033 498.782L337.97 498.779L337.912 498.773L337.857 498.766L337.807 498.756L337.762 498.744L337.721 498.73L337.684 498.714L337.651 498.695L337.623 498.675L337.599 498.652L337.579 498.627L337.564 498.6L337.553 498.57L337.547 498.539L337.545 498.505L337.547 498.469L337.553 498.431L337.564 498.391L337.579 498.349L337.599 498.304L337.623 498.258L337.651 498.209L337.684 498.158L337.721 498.105L337.762 498.049L337.807 497.992L337.857 497.932L337.912 497.87L337.97 497.806L338.033 497.74L338.101 497.671L338.101 497.671L338.171 497.601L338.242 497.53L338.316 497.456L338.39 497.382L338.466 497.306L338.544 497.228L338.622 497.15L338.703 497.069L338.785 496.987L338.868 496.904L338.953 496.819L339.039 496.733L339.126 496.646L339.215 496.557L339.306 496.466L339.398 496.374L339.491 496.281L339.586 496.186L339.682 496.09L339.78 495.992L339.879 495.893L339.98 495.792L340.082 495.69L340.185 495.587L340.29 495.482L340.397 495.375L340.504 495.268L340.614 495.158L340.724 495.048L340.837 494.935L340.95 494.822L341.065 494.707L341.065 494.707L341.181 494.591L341.296 494.476L341.41 494.362L341.523 494.249L341.635 494.137L341.747 494.025L341.858 493.914L341.969 493.803L342.078 493.694L342.187 493.585L342.296 493.477L342.403 493.369L342.51 493.262L342.616 493.156L342.721 493.051L342.826 492.946L342.93 492.842L343.033 492.739L343.135 492.637L343.237 492.535L343.338 492.434L343.438 492.334L343.538 492.234L343.636 492.136L343.734 492.038L343.832 491.94L343.928 491.844L344.024 491.748L344.12 491.652L344.214 491.558L344.308 491.464L344.401 491.371L344.401 491.371L344.491 491.279L344.574 491.186L344.653 491.093L344.725 491.001L344.792 490.908L344.852 490.815L344.907 490.723L344.957 490.63L345 490.537L345.038 490.445L345.07 490.352L345.096 490.259L345.116 490.167L345.13 490.074L345.139 489.982L345.142 489.889L345.139 489.796L345.13 489.704L345.116 489.611L345.096 489.518L345.07 489.426L345.038 489.333L345 489.24L344.957 489.148L344.907 489.055L344.852 488.962L344.792 488.87L344.725 488.777L344.653 488.684L344.574 488.592L344.491 488.499L344.401 488.406L344.401 488.406L344.308 488.313L344.214 488.22L344.12 488.125L344.024 488.03L343.928 487.934L343.832 487.838L343.734 487.74L343.636 487.642L343.538 487.543L343.438 487.444L343.338 487.344L343.237 487.243L343.135 487.141L343.033 487.038L342.93 486.935L342.826 486.831L342.721 486.727L342.616 486.622L342.51 486.515L342.403 486.409L342.296 486.301L342.187 486.193L342.078 486.084L341.969 485.974L341.858 485.864L341.747 485.753L341.635 485.641L341.523 485.529L341.41 485.415L341.296 485.301L341.181 485.187L341.065 485.071L341.065 485.071L340.95 484.956L340.837 484.842L340.724 484.73L340.614 484.619L340.504 484.51L340.397 484.402L340.29 484.296L340.185 484.191L340.082 484.087L339.98 483.985L339.879 483.885L339.78 483.786L339.682 483.688L339.586 483.592L339.491 483.497L339.398 483.403L339.306 483.311L339.215 483.221L339.126 483.132L339.039 483.044L338.953 482.958L338.868 482.874L338.785 482.79L338.703 482.709L338.622 482.628L338.544 482.549L338.466 482.472L338.39 482.396L338.316 482.321L338.242 482.248L338.171 482.177L338.101 482.106L338.101 482.106L338.033 482.038L337.97 481.972L337.912 481.908L337.857 481.846L337.807 481.786L337.762 481.728L337.721 481.673L337.684 481.62L337.651 481.569L337.623 481.52L337.599 481.473L337.579 481.429L337.564 481.386L337.553 481.346L337.547 481.308L337.545 481.272L337.547 481.239L337.553 481.207L337.564 481.178L337.579 481.151L337.599 481.126L337.623 481.103L337.651 481.082L337.684 481.064L337.721 481.048L337.762 481.034L337.807 481.022L337.857 481.012L337.912 481.004L337.97 480.999L338.033 480.996L338.101 480.995L338.101 480.995L338.17 480.995L338.24 480.995L338.309 480.995L338.379 480.995L338.448 480.995L338.518 480.995L338.587 480.995L338.656 480.995L338.726 480.995L338.795 480.995L338.865 480.995L338.934 480.995L339.004 480.995L339.073 480.995L339.143 480.995L339.212 480.995L339.282 480.995L339.351 480.995L339.421 480.995L339.49 480.995L339.56 480.995L339.629 480.995L339.699 480.995L339.768 480.995L339.838 480.995L339.907 480.995L339.977 480.995L340.046 480.995L340.116 480.995L340.185 480.995L340.255 480.995L340.324 480.995L340.324 480.995L340.393 480.995L340.462 480.995L340.529 480.995L340.596 480.995L340.663 480.995L340.728 480.995L340.793 480.995L340.857 480.995L340.92 480.995L340.983 480.995L341.045 480.995L341.106 480.995L341.166 480.995L341.226 480.995L341.285 480.995L341.343 480.995L341.401 480.995L341.458 480.995L341.514 480.995L341.569 480.995L341.624 480.995L341.678 480.995L341.731 480.995L341.783 480.995L341.835 480.995L341.886 480.995L341.936 480.995L341.986 480.995L342.035 480.995L342.083 480.995L342.13 480.995L342.177 480.995L342.177 480.995L342.223 480.995L342.27 480.997L342.316 481.001L342.362 481.006L342.409 481.013L342.455 481.021L342.501 481.03L342.548 481.041L342.594 481.053L342.64 481.067L342.687 481.082L342.733 481.099L342.779 481.117L342.826 481.136L342.872 481.157L342.918 481.18L342.965 481.204L343.011 481.229L343.057 481.256L343.104 481.284L343.15 481.314L343.196 481.345L343.243 481.377L343.289 481.411L343.335 481.447L343.382 481.484L343.428 481.522L343.474 481.562L343.521 481.603L343.567 481.646L343.613 481.69L343.66 481.736L343.66 481.736L343.706 481.782L343.752 481.828L343.799 481.875L343.845 481.921L343.891 481.967L343.938 482.014L343.984 482.06L344.03 482.106L344.076 482.153L344.123 482.199L344.169 482.245L344.215 482.292L344.262 482.338L344.308 482.384L344.354 482.431L344.401 482.477L344.447 482.523L344.493 482.57L344.54 482.616L344.586 482.662L344.632 482.709L344.679 482.755L344.725 482.801L344.771 482.848L344.818 482.894L344.864 482.94L344.91 482.986L344.957 483.033L345.003 483.079L345.049 483.125L345.096 483.172L345.142 483.218L345.142 483.218L345.189 483.265L345.237 483.314L345.287 483.364L345.339 483.415L345.392 483.468L345.446 483.522L345.502 483.578L345.559 483.635L345.618 483.694L345.678 483.754L345.739 483.815L345.802 483.878L345.867 483.943L345.932 484.009L346 484.076L346.068 484.145L346.139 484.215L346.21 484.286L346.283 484.36L346.358 484.434L346.434 484.51L346.511 484.588L346.59 484.666L346.671 484.747L346.752 484.829L346.836 484.912L346.92 484.997L347.007 485.083L347.094 485.17L347.183 485.259L347.274 485.35L347.366 485.442L347.366 485.442L347.458 485.531L347.551 485.615L347.643 485.694L347.736 485.766L347.829 485.833L347.921 485.893L348.014 485.948L348.107 485.998L348.199 486.041L348.292 486.079L348.385 486.111L348.477 486.137L348.57 486.157L348.663 486.171L348.755 486.18L348.848 486.183L348.941 486.18L349.033 486.171L349.126 486.157L349.219 486.137L349.311 486.111L349.404 486.079L349.496 486.041L349.589 485.998L349.682 485.948L349.774 485.893L349.867 485.833L349.96 485.766L350.052 485.694L350.145 485.615L350.238 485.531L350.33 485.442L350.33 485.442L350.422 485.35L350.513 485.259L350.602 485.17L350.689 485.083L350.775 484.997L350.86 484.912L350.943 484.829L351.025 484.747L351.106 484.666L351.184 484.588L351.262 484.51L351.338 484.434L351.412 484.36L351.486 484.286L351.557 484.215L351.627 484.145L351.696 484.076L351.763 484.009L351.829 483.943L351.894 483.878L351.957 483.815L352.018 483.754L352.078 483.694L352.137 483.635L352.194 483.578L352.25 483.522L352.304 483.468L352.357 483.415L352.408 483.364L352.458 483.314L352.507 483.265L352.554 483.218L352.554 483.218L352.6 483.172L352.647 483.125L352.693 483.079L352.739 483.033L352.786 482.986L352.832 482.94L352.878 482.894L352.925 482.848L352.971 482.801L353.017 482.755L353.063 482.709L353.11 482.662L353.156 482.616L353.202 482.57L353.249 482.523L353.295 482.477L353.341 482.431L353.388 482.384L353.434 482.338L353.48 482.292L353.527 482.245L353.573 482.199L353.619 482.153L353.666 482.106L353.712 482.06L353.758 482.014L353.805 481.967L353.851 481.921L353.897 481.875L353.944 481.828L353.99 481.782L354.036 481.736L354.036 481.736L354.083 481.69L354.129 481.646L354.175 481.603L354.222 481.562L354.268 481.522L354.314 481.484L354.361 481.447L354.407 481.411L354.453 481.377L354.5 481.345L354.546 481.314L354.592 481.284L354.639 481.256L354.685 481.229L354.731 481.204L354.778 481.18L354.824 481.157L354.87 481.136L354.916 481.117L354.963 481.099L355.009 481.082L355.055 481.067L355.102 481.053L355.148 481.041L355.194 481.03L355.241 481.021L355.287 481.013L355.333 481.006L355.38 481.001L355.426 480.997L355.472 480.995L355.519 480.995L355.519 480.995L355.565 480.995L355.613 480.995L355.661 480.995L355.71 480.995L355.759 480.995L355.81 480.995L355.861 480.995L355.912 480.995L355.965 480.995L356.018 480.995L356.072 480.995L356.127 480.995L356.182 480.995L356.238 480.995L356.295 480.995L356.353 480.995L356.411 480.995L356.47 480.995L356.53 480.995L356.59 480.995L356.651 480.995L356.713 480.995L356.776 480.995L356.839 480.995L356.903 480.995L356.968 480.995L357.033 480.995L357.1 480.995L357.166 480.995L357.234 480.995L357.303 480.995L357.372 480.995L357.372 480.995L357.441 480.995L357.511 480.995L357.58 480.995L357.65 480.995L357.719 480.995L357.789 480.995L357.858 480.995L357.928 480.995L357.997 480.995L358.067 480.995L358.136 480.995L358.206 480.995L358.275 480.995L358.345 480.995L358.414 480.995L358.483 480.995L358.553 480.995L358.622 480.995L358.692 480.995L358.761 480.995L358.831 480.995L358.9 480.995L358.97 480.995L359.039 480.995L359.109 480.995L359.178 480.995L359.248 480.995L359.317 480.995L359.387 480.995L359.456 480.995L359.526 480.995L359.595 480.995L359.595 480.995L359.663 480.996L359.726 480.999L359.784 481.004L359.838 481.012L359.888 481.022L359.934 481.034L359.975 481.048L360.012 481.064L360.045 481.082L360.073 481.103L360.097 481.126L360.116 481.151L360.132 481.178L360.142 481.207L360.149 481.239L360.151 481.272L360.149 481.308L360.142 481.346L360.132 481.386L360.116 481.429L360.097 481.473L360.073 481.52L360.045 481.569L360.012 481.62L359.975 481.673L359.934 481.728L359.888 481.786L359.838 481.846L359.784 481.908L359.726 481.972L359.663 482.038L359.595 482.106L359.595 482.106L359.525 482.177L359.452 482.25L359.377 482.325L359.3 482.402L359.221 482.481L359.139 482.562L359.056 482.646L358.97 482.732L358.882 482.82L358.792 482.91L358.7 483.002L358.605 483.097L358.508 483.193L358.41 483.292L358.309 483.393L358.206 483.496L358.1 483.601L357.993 483.709L357.883 483.819L357.771 483.93L357.657 484.044L357.541 484.161L357.423 484.279L357.302 484.399L357.18 484.522L357.055 484.647L356.928 484.774L356.798 484.903L356.667 485.035L356.534 485.168L356.398 485.304L356.26 485.442"/>
<path class="l5" d="M663.115 133.374L664.597 134.115L663.115 134.856L663.115 133.374"/>
<path class="l5" d="M663.856 142.268L665.339 142.268L665.339 143.75L663.856 143.75L663.856 142.268z"/>
<path class="l5" d="M651.997 133.374L653.479 133.374L653.479 134.856L651.997 134.856L651.997 133.374z"/>
<path class="l5" d="M663.856 124.479L665.339 124.479L665.339 125.962L663.856 125.962L663.856 124.479z"/>
<path class="l5" d="M664.574 134.092L664.621 134.092L664.621 134.138L664.574 134.138L664.574 134.092z"/>
<path class="l5" d="M760.953 133.374L759.471 134.115L760.953 134.856L760.953 133.374"/>
<path class="l5" d="M758.729 142.268L760.212 142.268L760.212 143.75L758.729 143.75L758.729 142.268z"/>
<path class="l5" d="M770.588 133.374L772.071 133.374L772.071 134.856L770.588 134.856L770.588 133.374z"/>
<path class="l5" d="M758.729 124.479L760.212 124.479L760.212 125.962L758.729 125.962L758.729 124.479z"/>
<path class="l5" d="M759.447 134.092L759.494 134.092L759.494 134.138L759.447 134.138L759.447 134.092z"/>
<path class="l5" d="M594.925 133.374L593.443 134.115L594.925 134.856L594.925 133.374"/>
<path class="l5" d="M592.701 142.268L594.184 142.268L594.184 143.75L592.701 143.75L592.701 142.268z"/>
<path class="l5" d="M604.561 133.374L606.043 133.374L606.043 134.856L604.561 134.856L604.561 133.374z"/>
<path class="l5" d="M592.701 124.479L594.184 124.479L594.184 125.962L592.701 125.962L592.701 124.479z"/>
<path class="l5" d="M593.419 134.092L593.466 134.092L593.466 134.138L593.419 134.138L593.419 134.092z"/>
<path class="l5" d="M829.143 133.374L830.625 134.115L829.143 134.856L829.143 133.374"/>
<path class="l5" d="M829.884 142.268L831.367 142.268L831.367 143.75L829.884 143.75L829.884 142.268z"/>
<path class="l5" d="M818.025 133.374L819.507 133.374L819.507 134.856L818.025 134.856L818.025 133.374z"/>
<path class="l5" d="M829.884 124.479L831.367 124.479L831.367 125.962L829.884 125.962L829.884 124.479z"/>
<path class="l5" d="M830.602 134.092L830.649 134.092L830.649 134.138L830.602 134.138L830.602 134.092z"/>
<path class="l5" d="M510.429 251.965L511.911 252.706L510.429 253.447L510.429 251.965"/>
<path class="l5" d="M509.687 243.071L511.17 243.071L511.17 244.553L509.687 244.553L509.687 243.071z"/>
<path class="l5" d="M521.547 251.965L523.029 251.965L523.029 253.447L521.547 253.447L521.547 251.965z"/>
<path class="l5" d="M509.687 260.859L511.17 260.859L511.17 262.342L509.687 262.342L509.687 260.859z"/>
<path class="l5" d="M510.406 252.683L510.452 252.683L510.452 252.729L510.406 252.729L510.406 252.683z"/>
<path class="l5" d="M712.034 251.965L710.552 252.706L712.034 253.447L712.034 251.965"/>
<path class="l5" d="M711.293 243.071L712.775 243.071L712.775 244.553L711.293 244.553L711.293 243.071z"/>
<path class="l5" d="M699.434 251.965L700.916 251.965L700.916 253.447L699.434 253.447L699.434 251.965z"/>
<path class="l5" d="M711.293 260.859L712.775 260.859L712.775 262.342L711.293 262.342L711.293 260.859z"/>
<path class="l5" d="M712.011 252.683L712.057 252.683L712.057 252.729L712.011 252.729L712.011 252.683z"/>
<path class="l5" d="M593.443 299.402L594.925 300.143L593.443 300.884L593.443 299.402"/>
<path class="l5" d="M592.701 290.507L594.184 290.507L594.184 291.99L592.701 291.99L592.701 290.507z"/>
<path class="l5" d="M604.561 299.402L606.043 299.402L606.043 300.884L604.561 300.884L604.561 299.402z"/>
<path class="l5" d="M592.701 308.296L594.184 308.296L594.184 309.778L592.701 309.778L592.701 308.296z"/>
<path class="l5" d="M593.419 300.12L593.466 300.12L593.466 300.166L593.419 300.166L593.419 300.12z"/>
<path class="l5" d="M830.625 299.402L829.143 300.143L830.625 300.884L830.625 299.402"/>
<path class="l5" d="M829.884 290.507L831.367 290.507L831.367 291.99L829.884 291.99L829.884 290.507z"/>
<path class="l5" d="M818.025 299.402L819.507 299.402L819.507 300.884L818.025 300.884L818.025 299.402z"/>
<path class="l5" d="M829.884 308.296L831.367 308.296L831.367 309.778L829.884 309.778L829.884 308.296z"/>
<path class="l5" d="M830.602 300.12L830.649 300.12L830.649 300.166L830.602 300.166L830.602 300.12z"/>
<path class="l5" d="M664.597 186.74L663.115 187.481L664.597 188.222L664.597 186.74"/>
<path class="l5" d="M663.856 177.845L665.339 177.845L665.339 179.328L663.856 179.328L663.856 177.845z"/>
<path class="l5" d="M651.997 186.74L653.479 186.74L653.479 188.222L651.997 188.222L651.997 186.74z"/>
<path class="l5" d="M663.856 195.634L665.339 195.634L665.339 197.116L663.856 197.116L663.856 195.634z"/>
<path class="l5" d="M664.574 187.458L664.621 187.458L664.621 187.504L664.574 187.504L664.574 187.458z"/>
<path class="l5" d="M759.471 186.74L760.953 187.481L759.471 188.222L759.471 186.74"/>
<path class="l5" d="M758.729 177.845L760.212 177.845L760.212 179.328L758.729 179.328L758.729 177.845z"/>
<path class="l5" d="M770.588 186.74L772.071 186.74L772.071 188.222L770.588 188.222L770.588 186.74z"/>
<path class="l5" d="M758.729 195.634L760.212 195.634L760.212 197.116L758.729 197.116L758.729 195.634z"/>
<path class="l5" d="M759.447 187.458L759.494 187.458L759.494 187.504L759.447 187.504L759.447 187.458z"/>
<path class="l5" d="M693.875 187.11L694.616 187.11L694.616 187.852L693.875 187.852L693.875 187.11z"/>
<path class="l5" d="M729.452 187.11L730.193 187.11L730.193 187.852L729.452 187.852L729.452 187.11z"/>
<text fill="#00ccee"  xml:space="preserve" font-size="5.08757" transform="translate(713.874, 89.6893) rotate(270)" >VDD</text>
<text fill="#00ccee"  xml:space="preserve" font-size="5.08757" transform="translate(663.196, 353.568) rotate(270)" >VSS</text>
<text fill="#00ccee"  xml:space="preserve" font-size="5.08757" transform="translate(854.297, 218.969)" >VOTA</text>
<text fill="#00ccee"  xml:space="preserve" font-size="5.08757" transform="translate(621.996, 189.044)" >VREF</text>
<text fill="#00ccee"  xml:space="preserve" font-size="5.08757" transform="translate(512.269, 211.245) rotate(270)" >IBIAS</text>
<text fill="#00ccee"  xml:space="preserve" font-size="5.08757" transform="translate(789.072, 189.321)" >VFB</text>
<text fill="#cccccc"  xml:space="preserve" font-size="12.3335" transform="translate(854.344, 483.299)" >2025-08-04  03:34:25</text>
<text fill="#cccccc"  xml:space="preserve" font-size="12.3335" transform="translate(667.562, 459.581)" >Julio Vilca</text>
<text fill="#cccccc"  xml:space="preserve" font-size="12.3335" transform="translate(667.562, 483.299)" >Page 1 of 1</text>
<text fill="#cccccc"  xml:space="preserve" font-size="12.3335" transform="translate(768.365, 483.299)" >Rev. 1.0</text>
<text fill="#cccccc"  xml:space="preserve" font-size="15.4169" transform="translate(360.707, 496.475)" >SCHEM</text>
<text fill="#ff0000"  xml:space="preserve" font-size="2.31253" transform="translate(665.339, 141.403)" >D</text>
<text fill="#ff0000"  xml:space="preserve" font-size="2.31253" transform="translate(665.339, 128.374)" >S</text>
<text fill="#ff0000"  xml:space="preserve" font-size="2.31253" transform="translate(664.597, 133.25)" >B</text>
<text fill="#ff0000"  xml:space="preserve" font-size="2.31253" transform="translate(652.962, 132.509)" >G</text>
<text fill="#cccccc"  xml:space="preserve" font-size="3.08338" transform="translate(667.562, 130.784)" >pfet_05v0</text>
<text fill="#aaaa00"  xml:space="preserve" font-size="3.08338" transform="translate(667.933, 140.991)" >1 x 25.00u / 2.00u</text>
<text fill="#aaaa00"  xml:space="preserve" font-size="3.08338" transform="translate(667.933, 137.285)" >nf=1</text>
<text fill="#cccccc"  xml:space="preserve" font-size="3.08338" transform="translate(653.15, 128.02)" >XM3</text>
<text fill="#ff0000"  xml:space="preserve" font-size="2.31253" transform="translate(756.729, 141.403)" >D</text>
<text fill="#ff0000"  xml:space="preserve" font-size="2.31253" transform="translate(756.729, 128.374)" >S</text>
<text fill="#ff0000"  xml:space="preserve" font-size="2.31253" transform="translate(757.471, 133.25)" >B</text>
<text fill="#ff0000"  xml:space="preserve" font-size="2.31253" transform="translate(769.106, 132.509)" >G</text>
<text fill="#cccccc"  xml:space="preserve" font-size="3.08338" transform="translate(740.506, 130.784)" >pfet_05v0</text>
<text fill="#aaaa00"  xml:space="preserve" font-size="3.08338" transform="translate(727.135, 140.991)" >1 x 25.00u / 2.00u</text>
<text fill="#aaaa00"  xml:space="preserve" font-size="3.08338" transform="translate(748.135, 137.285)" >nf=1</text>
<text fill="#cccccc"  xml:space="preserve" font-size="3.08338" transform="translate(763.918, 128.02)" >XM4</text>
<text fill="#ff0000"  xml:space="preserve" font-size="2.31253" transform="translate(590.701, 141.403)" >D</text>
<text fill="#ff0000"  xml:space="preserve" font-size="2.31253" transform="translate(590.701, 128.374)" >S</text>
<text fill="#ff0000"  xml:space="preserve" font-size="2.31253" transform="translate(591.443, 133.25)" >B</text>
<text fill="#ff0000"  xml:space="preserve" font-size="2.31253" transform="translate(603.078, 132.509)" >G</text>
<text fill="#cccccc"  xml:space="preserve" font-size="3.08338" transform="translate(574.478, 130.784)" >pfet_05v0</text>
<text fill="#aaaa00"  xml:space="preserve" font-size="3.08338" transform="translate(561.107, 140.991)" >1 x 25.00u / 2.00u</text>
<text fill="#aaaa00"  xml:space="preserve" font-size="3.08338" transform="translate(582.107, 137.285)" >nf=1</text>
<text fill="#cccccc"  xml:space="preserve" font-size="3.08338" transform="translate(597.89, 128.02)" >XM5</text>
<text fill="#ff0000"  xml:space="preserve" font-size="2.31253" transform="translate(831.367, 141.403)" >D</text>
<text fill="#ff0000"  xml:space="preserve" font-size="2.31253" transform="translate(831.367, 128.374)" >S</text>
<text fill="#ff0000"  xml:space="preserve" font-size="2.31253" transform="translate(830.625, 133.25)" >B</text>
<text fill="#ff0000"  xml:space="preserve" font-size="2.31253" transform="translate(818.99, 132.509)" >G</text>
<text fill="#cccccc"  xml:space="preserve" font-size="3.08338" transform="translate(833.59, 130.784)" >pfet_05v0</text>
<text fill="#aaaa00"  xml:space="preserve" font-size="3.08338" transform="translate(833.961, 140.991)" >2 x 25.00u / 2.00u</text>
<text fill="#aaaa00"  xml:space="preserve" font-size="3.08338" transform="translate(833.961, 137.285)" >nf=1</text>
<text fill="#cccccc"  xml:space="preserve" font-size="3.08338" transform="translate(819.178, 128.02)" >XM6</text>
<text fill="#ff0000"  xml:space="preserve" font-size="2.31253" transform="translate(507.687, 259.994)" >S</text>
<text fill="#ff0000"  xml:space="preserve" font-size="2.31253" transform="translate(507.687, 246.965)" >D</text>
<text fill="#ff0000"  xml:space="preserve" font-size="2.31253" transform="translate(508.429, 251.841)" >B</text>
<text fill="#ff0000"  xml:space="preserve" font-size="2.31253" transform="translate(519.323, 251.841)" >G</text>
<text fill="#cccccc"  xml:space="preserve" font-size="3.08338" transform="translate(491.464, 249.375)" >nfet_05v0</text>
<text fill="#aaaa00"  xml:space="preserve" font-size="3.08338" transform="translate(480.093, 259.582)" >1 x 8.00u / 2.00u</text>
<text fill="#aaaa00"  xml:space="preserve" font-size="3.08338" transform="translate(499.093, 255.876)" >nf=1</text>
<text fill="#cccccc"  xml:space="preserve" font-size="3.08338" transform="translate(514.876, 246.612)" >XM9</text>
<text fill="#ff0000"  xml:space="preserve" font-size="2.31253" transform="translate(712.775, 259.994)" >S</text>
<text fill="#ff0000"  xml:space="preserve" font-size="2.31253" transform="translate(712.775, 246.965)" >D</text>
<text fill="#ff0000"  xml:space="preserve" font-size="2.31253" transform="translate(712.034, 251.841)" >B</text>
<text fill="#ff0000"  xml:space="preserve" font-size="2.31253" transform="translate(701.14, 251.841)" >G</text>
<text fill="#cccccc"  xml:space="preserve" font-size="3.08338" transform="translate(714.999, 249.375)" >nfet_05v0</text>
<text fill="#aaaa00"  xml:space="preserve" font-size="3.08338" transform="translate(715.369, 259.582)" >1 x 8.00u / 2.00u</text>
<text fill="#aaaa00"  xml:space="preserve" font-size="3.08338" transform="translate(715.369, 255.876)" >nf=1</text>
<text fill="#cccccc"  xml:space="preserve" font-size="3.08338" transform="translate(698.587, 246.612)" >XM10</text>
<text fill="#ff0000"  xml:space="preserve" font-size="2.31253" transform="translate(590.701, 307.431)" >S</text>
<text fill="#ff0000"  xml:space="preserve" font-size="2.31253" transform="translate(590.701, 294.402)" >D</text>
<text fill="#ff0000"  xml:space="preserve" font-size="2.31253" transform="translate(591.443, 299.278)" >B</text>
<text fill="#ff0000"  xml:space="preserve" font-size="2.31253" transform="translate(602.337, 299.278)" >G</text>
<text fill="#cccccc"  xml:space="preserve" font-size="3.08338" transform="translate(574.478, 296.812)" >nfet_05v0</text>
<text fill="#aaaa00"  xml:space="preserve" font-size="3.08338" transform="translate(563.107, 307.019)" >1 x 4.00u / 2.00u</text>
<text fill="#aaaa00"  xml:space="preserve" font-size="3.08338" transform="translate(582.107, 303.313)" >nf=1</text>
<text fill="#cccccc"  xml:space="preserve" font-size="3.08338" transform="translate(597.89, 294.048)" >XM7</text>
<text fill="#ff0000"  xml:space="preserve" font-size="2.31253" transform="translate(831.367, 307.431)" >S</text>
<text fill="#ff0000"  xml:space="preserve" font-size="2.31253" transform="translate(831.367, 294.402)" >D</text>
<text fill="#ff0000"  xml:space="preserve" font-size="2.31253" transform="translate(830.625, 299.278)" >B</text>
<text fill="#ff0000"  xml:space="preserve" font-size="2.31253" transform="translate(819.731, 299.278)" >G</text>
<text fill="#cccccc"  xml:space="preserve" font-size="3.08338" transform="translate(833.59, 296.812)" >nfet_05v0</text>
<text fill="#aaaa00"  xml:space="preserve" font-size="3.08338" transform="translate(833.961, 307.019)" >2 x 4.00u / 2.00u</text>
<text fill="#aaaa00"  xml:space="preserve" font-size="3.08338" transform="translate(833.961, 303.313)" >nf=1</text>
<text fill="#cccccc"  xml:space="preserve" font-size="3.08338" transform="translate(819.178, 294.048)" >XM8</text>
<text fill="#ff0000"  xml:space="preserve" font-size="2.31253" transform="translate(665.339, 194.769)" >S</text>
<text fill="#ff0000"  xml:space="preserve" font-size="2.31253" transform="translate(665.339, 181.74)" >D</text>
<text fill="#ff0000"  xml:space="preserve" font-size="2.31253" transform="translate(664.597, 186.616)" >B</text>
<text fill="#ff0000"  xml:space="preserve" font-size="2.31253" transform="translate(653.703, 186.616)" >G</text>
<text fill="#cccccc"  xml:space="preserve" font-size="3.08338" transform="translate(667.562, 184.15)" >nfet_05v0</text>
<text fill="#aaaa00"  xml:space="preserve" font-size="3.08338" transform="translate(667.933, 194.357)" >1 x 40.00u / 0.60u</text>
<text fill="#aaaa00"  xml:space="preserve" font-size="3.08338" transform="translate(667.933, 190.651)" >nf=1</text>
<text fill="#cccccc"  xml:space="preserve" font-size="3.08338" transform="translate(653.15, 181.386)" >XM1</text>
<text fill="#ff0000"  xml:space="preserve" font-size="2.31253" transform="translate(756.729, 194.769)" >S</text>
<text fill="#ff0000"  xml:space="preserve" font-size="2.31253" transform="translate(756.729, 181.74)" >D</text>
<text fill="#ff0000"  xml:space="preserve" font-size="2.31253" transform="translate(757.471, 186.616)" >B</text>
<text fill="#ff0000"  xml:space="preserve" font-size="2.31253" transform="translate(768.365, 186.616)" >G</text>
<text fill="#cccccc"  xml:space="preserve" font-size="3.08338" transform="translate(740.506, 184.15)" >nfet_05v0</text>
<text fill="#aaaa00"  xml:space="preserve" font-size="3.08338" transform="translate(727.135, 194.357)" >1 x 40.00u / 0.60u</text>
<text fill="#aaaa00"  xml:space="preserve" font-size="3.08338" transform="translate(748.135, 190.651)" >nf=1</text>
<text fill="#cccccc"  xml:space="preserve" font-size="3.08338" transform="translate(763.918, 181.386)" >XM2</text>
<text fill="#00ccee"  xml:space="preserve" font-size="4.16256" transform="translate(684.504, 186.115)" >VSS</text>
<text fill="#00ccee"  xml:space="preserve" font-size="4.16256" transform="translate(730.564, 186.115)" >VSS</text>
<path class="l1" d="M504.499 252.706L510.429 252.706"/>
<path class="l1" d="M504.499 252.706L504.499 267.53"/>
<path class="l1" d="M504.499 267.53L510.429 267.53"/>
<path class="l1" d="M712.034 252.706L717.964 252.706"/>
<path class="l1" d="M717.964 252.706L717.964 267.53"/>
<path class="l1" d="M712.034 267.53L717.964 267.53"/>
<path class="l1" d="M664.597 196.375L664.597 214.164"/>
<path class="l1" d="M664.597 214.164L712.034 214.164"/>
<path class="l1" d="M664.597 187.481L670.527 187.481"/>
<path class="l1" d="M640.879 187.481L652.738 187.481"/>
<path class="l1" d="M759.471 196.375L759.471 214.164"/>
<path class="l1" d="M712.034 214.164L759.471 214.164"/>
<path class="l1" d="M753.541 187.481L759.471 187.481"/>
<path class="l1" d="M771.33 187.481L783.189 187.481"/>
<path class="l1" d="M664.597 143.009L664.597 178.587"/>
<path class="l1" d="M759.471 143.009L759.471 178.587"/>
<path class="l1" d="M664.597 107.432L664.597 125.22"/>
<path class="l1" d="M759.471 107.432L759.471 125.22"/>
<path class="l1" d="M712.034 95.5726L712.034 107.432"/>
<path class="l1" d="M712.034 214.164L712.034 243.812"/>
<path class="l1" d="M830.625 300.143L836.555 300.143"/>
<path class="l1" d="M836.555 300.143L836.555 314.967"/>
<path class="l1" d="M830.625 314.967L836.555 314.967"/>
<path class="l1" d="M830.625 217.129L848.414 217.129"/>
<path class="l1" d="M664.597 134.115L670.527 134.115"/>
<path class="l1" d="M670.527 119.291L670.527 134.115"/>
<path class="l1" d="M664.597 119.291L670.527 119.291"/>
<path class="l1" d="M753.541 134.115L759.471 134.115"/>
<path class="l1" d="M753.541 119.291L753.541 134.115"/>
<path class="l1" d="M753.541 119.291L759.471 119.291"/>
<path class="l1" d="M593.443 282.354L593.443 291.248"/>
<path class="l1" d="M605.302 300.143L617.161 300.143"/>
<path class="l1" d="M593.443 143.009L593.443 282.354"/>
<path class="l1" d="M593.443 309.037L593.443 326.826"/>
<path class="l1" d="M587.513 300.143L593.443 300.143"/>
<path class="l1" d="M587.513 300.143L587.513 314.967"/>
<path class="l1" d="M587.513 314.967L593.443 314.967"/>
<path class="l1" d="M605.302 134.115L652.738 134.115"/>
<path class="l1" d="M830.625 143.009L830.625 291.248"/>
<path class="l1" d="M771.33 134.115L818.766 134.115"/>
<path class="l1" d="M830.625 107.432L830.625 125.22"/>
<path class="l1" d="M617.161 300.143L818.766 300.143"/>
<path class="l1" d="M593.443 326.826L830.625 326.826"/>
<path class="l1" d="M830.625 309.037L830.625 326.826"/>
<path class="l1" d="M712.034 261.601L712.034 326.826"/>
<path class="l1" d="M634.95 157.833L664.597 157.833"/>
<path class="l1" d="M634.95 134.115L634.95 157.833"/>
<path class="l1" d="M623.09 276.424L623.09 300.143"/>
<path class="l1" d="M593.443 276.424L623.09 276.424"/>
<path class="l1" d="M759.471 157.833L789.118 157.833"/>
<path class="l1" d="M789.118 134.115L789.118 157.833"/>
<path class="l1" d="M593.443 107.432L593.443 125.22"/>
<path class="l1" d="M593.443 107.432L830.625 107.432"/>
<path class="l1" d="M830.625 134.115L836.555 134.115"/>
<path class="l1" d="M836.555 119.291L836.555 134.115"/>
<path class="l1" d="M830.625 119.291L836.555 119.291"/>
<path class="l1" d="M587.513 134.115L593.443 134.115"/>
<path class="l1" d="M587.513 119.291L587.513 134.115"/>
<path class="l1" d="M587.513 119.291L593.443 119.291"/>
<path class="l1" d="M522.288 252.706L700.175 252.706"/>
<path class="l1" d="M510.429 326.826L593.443 326.826"/>
<path class="l1" d="M510.429 261.601L510.429 326.826"/>
<path class="l1" d="M540.077 228.988L540.077 252.706"/>
<path class="l1" d="M510.429 228.988L540.077 228.988"/>
<path class="l1" d="M510.429 217.129L510.429 243.812"/>
<path class="l1" d="M661.633 326.826L661.633 338.685"/>
<path class="l1" d="M670.527 187.481L694.245 187.481"/>
<path class="l1" d="M729.823 187.481L753.541 187.481"/>
<circle class="l1" cx="510.429" cy="228.988" r="1.09697"/>
<circle class="l1" cx="540.077" cy="252.706" r="1.09697"/>
<circle class="l1" cx="593.443" cy="326.826" r="1.09697"/>
<circle class="l1" cx="510.429" cy="267.53" r="1.09697"/>
<circle class="l1" cx="593.443" cy="119.291" r="1.09697"/>
<circle class="l1" cx="664.597" cy="119.291" r="1.09697"/>
<circle class="l1" cx="664.597" cy="107.432" r="1.09697"/>
<circle class="l1" cx="634.95" cy="134.115" r="1.09697"/>
<circle class="l1" cx="664.597" cy="157.833" r="1.09697"/>
<circle class="l1" cx="712.034" cy="214.164" r="1.09697"/>
<circle class="l1" cx="661.633" cy="326.826" r="1.09697"/>
<circle class="l1" cx="593.443" cy="276.424" r="1.09697"/>
<circle class="l1" cx="623.09" cy="300.143" r="1.09697"/>
<circle class="l1" cx="593.443" cy="326.826" r="1.09697"/>
<circle class="l1" cx="593.443" cy="314.967" r="1.09697"/>
<circle class="l1" cx="593.443" cy="326.826" r="1.09697"/>
<circle class="l1" cx="759.471" cy="119.291" r="1.09697"/>
<circle class="l1" cx="712.034" cy="107.432" r="1.09697"/>
<circle class="l1" cx="759.471" cy="107.432" r="1.09697"/>
<circle class="l1" cx="759.471" cy="157.833" r="1.09697"/>
<circle class="l1" cx="712.034" cy="214.164" r="1.09697"/>
<circle class="l1" cx="712.034" cy="214.164" r="1.09697"/>
<circle class="l1" cx="712.034" cy="326.826" r="1.09697"/>
<circle class="l1" cx="712.034" cy="267.53" r="1.09697"/>
<circle class="l1" cx="830.625" cy="119.291" r="1.09697"/>
<circle class="l1" cx="789.118" cy="134.115" r="1.09697"/>
<circle class="l1" cx="830.625" cy="217.129" r="1.09697"/>
<circle class="l1" cx="830.625" cy="314.967" r="1.09697"/>
</svg>
